<svg width="100" height="100" viewBox="0 0 100 100" fill="none" xmlns="http://www.w3.org/2000/svg">
<rect width="100" height="100" rx="20" fill="#575757"/>
<path d="M43.6196 25.0664C35.8251 30.605 30.7394 39.7077 30.7388 49.998V50.0195L30.7769 51.5488V51.5615L30.7778 51.5713C31.2665 61.2144 36.2238 69.6786 43.6196 74.9336L43.7144 75L43.7876 74.9111L46.8335 71.248L46.9204 71.1426L46.8081 71.0654C40.1183 66.4528 35.733 58.7377 35.7329 49.998C35.7335 41.2594 40.1182 33.5446 46.8071 28.9326L46.9194 28.8555L46.8325 28.75L43.7876 25.0889L43.7144 25L43.6196 25.0664ZM45.1147 69.9482C45.6396 70.3747 46.1799 70.7833 46.7378 71.168C46.1799 70.7833 45.6396 70.3747 45.1147 69.9482ZM51.0376 33.9805C45.853 37.3106 42.3885 43.088 42.2808 49.6826L42.2788 49.998V50.0195L42.3013 50.9541V50.958L42.3022 50.9775C42.6225 57.2965 46.0268 62.8003 51.0376 66.0186L51.1294 66.0791L51.2007 65.9941L54.1001 62.5059L54.1929 62.3936L54.0669 62.3184C49.8488 59.8342 47.0182 55.2468 47.0181 49.998C47.0187 44.7501 49.8493 40.1641 54.0669 37.6807L54.1929 37.6055L54.0991 37.4932L51.2007 34.0059L51.1294 33.9209L51.0376 33.9805ZM61.6274 42.3662C57.4116 42.3663 53.9937 45.7841 53.9937 50C53.9938 54.2157 57.4117 57.6337 61.6274 57.6338C65.8432 57.6338 69.261 54.2158 69.2612 50C69.2612 45.7841 65.8433 42.3662 61.6274 42.3662ZM61.6274 46.8574C63.3627 46.8574 64.77 48.2647 64.77 50C64.7698 51.7351 63.3626 53.1416 61.6274 53.1416C59.8924 53.1415 58.486 51.7351 58.4858 50C58.4859 48.2648 59.8923 46.8575 61.6274 46.8574ZM42.4146 49.3662C42.4076 49.5759 42.4038 49.7867 42.4038 49.998C42.4038 49.7867 42.4076 49.5759 42.4146 49.3662ZM30.8628 49.998L30.8667 49.5186C30.8679 49.4437 30.8728 49.3687 30.8745 49.2939C30.8692 49.528 30.8628 49.7628 30.8628 49.998ZM30.8892 48.8057C30.8953 48.6474 30.9031 48.4896 30.9116 48.332C30.9031 48.4896 30.8953 48.6474 30.8892 48.8057ZM42.521 47.9092C42.5342 47.7891 42.5466 47.6692 42.562 47.5498C42.5466 47.6692 42.5342 47.7891 42.521 47.9092ZM30.938 47.8877C30.9493 47.7229 30.9622 47.5586 30.9761 47.3945C30.9622 47.5586 30.9493 47.7229 30.938 47.8877ZM31.019 46.9219C31.0337 46.776 31.0502 46.6306 31.0669 46.4854C31.0502 46.6306 31.0337 46.776 31.019 46.9219ZM42.7163 46.5693C42.729 46.5 42.7399 46.4304 42.7534 46.3613C42.7399 46.4304 42.729 46.5 42.7163 46.5693ZM31.1206 46.041C31.1446 45.8565 31.1705 45.6727 31.1978 45.4893C31.1705 45.6727 31.1446 45.8565 31.1206 46.041ZM42.8325 45.9844C42.8472 45.9163 42.861 45.8481 42.8765 45.7803C42.861 45.8481 42.8473 45.9163 42.8325 45.9844ZM42.9897 45.3154C42.9985 45.2813 43.0062 45.2469 43.0151 45.2129C43.0062 45.2469 42.9985 45.2813 42.9897 45.3154ZM31.2505 45.1426C31.2801 44.958 31.3123 44.7742 31.3452 44.5908C31.3123 44.7742 31.2801 44.958 31.2505 45.1426ZM43.2446 44.416C43.2816 44.2963 43.3176 44.1763 43.3569 44.0576C43.3176 44.1763 43.2816 44.2963 43.2446 44.416ZM31.4106 44.2373C31.4402 44.0832 31.4716 43.9297 31.5034 43.7764C31.4716 43.9297 31.4402 44.0832 31.4106 44.2373ZM43.4497 43.79C43.484 43.6915 43.5174 43.5929 43.5532 43.4951C43.5174 43.5929 43.484 43.6915 43.4497 43.79ZM31.5981 43.3311C31.6294 43.1913 31.6626 43.0521 31.6958 42.9131C31.6626 43.0521 31.6294 43.1913 31.5981 43.3311ZM43.6323 43.2871C43.6732 43.1797 43.7136 43.0723 43.7563 42.9658C43.7136 43.0723 43.6732 43.1797 43.6323 43.2871ZM43.8823 42.6631C43.9136 42.589 43.9449 42.515 43.9771 42.4414C43.9449 42.515 43.9136 42.589 43.8823 42.6631ZM31.814 42.4307C31.8499 42.2901 31.8884 42.1505 31.9263 42.0107C31.8884 42.1505 31.8499 42.2901 31.814 42.4307ZM44.1646 42.0264C44.1818 41.9893 44.1988 41.952 44.2163 41.915C44.1988 41.952 44.1818 41.9893 44.1646 42.0264ZM32.0376 41.6045C32.0844 41.441 32.1337 41.2785 32.1831 41.1162C32.1336 41.2785 32.0844 41.441 32.0376 41.6045ZM44.3823 41.5762C44.413 41.5147 44.4428 41.4527 44.4741 41.3916C44.4428 41.4527 44.413 41.5147 44.3823 41.5762ZM44.6499 41.0596C44.6826 40.9989 44.7152 40.9382 44.7485 40.8779C44.7152 40.9382 44.6826 40.9989 44.6499 41.0596ZM32.312 40.6973C32.37 40.5163 32.4314 40.3367 32.4927 40.1572C32.4314 40.3367 32.37 40.5163 32.312 40.6973ZM44.9204 40.5742C44.9599 40.5057 44.9992 40.4371 45.0396 40.3691C44.9992 40.4371 44.9599 40.5057 44.9204 40.5742ZM45.1948 40.1143C45.2475 40.0287 45.3 39.9431 45.354 39.8584C45.3 39.9431 45.2475 40.0287 45.1948 40.1143ZM51.0981 39.8262H51.0972H51.0981ZM32.5806 39.8975C32.641 39.7255 32.7056 39.5553 32.769 39.3848C32.7056 39.5553 32.641 39.7255 32.5806 39.8975ZM45.4878 39.6514C45.552 39.5534 45.6171 39.4561 45.6831 39.3594C45.6171 39.4561 45.552 39.5534 45.4878 39.6514ZM45.7964 39.1963C45.8698 39.0911 45.9436 38.9864 46.019 38.8828C45.9436 38.9864 45.8698 39.0911 45.7964 39.1963ZM32.9009 39.0312C32.9667 38.861 33.0353 38.6922 33.104 38.5234C33.0353 38.6922 32.9667 38.861 32.9009 39.0312ZM46.1743 38.6738C46.2258 38.6052 46.2772 38.5366 46.3296 38.4688C46.2772 38.5366 46.2258 38.6052 46.1743 38.6738ZM33.2349 38.2021C33.3148 38.0121 33.3982 37.8238 33.4819 37.6357C33.3982 37.8238 33.3148 38.0121 33.2349 38.2021ZM46.5659 38.1699C46.6128 38.1116 46.659 38.0528 46.7065 37.9951C46.659 38.0528 46.6128 38.1116 46.5659 38.1699ZM46.8618 37.8105C46.9397 37.7183 47.0185 37.6268 47.0981 37.5361C47.0185 37.6268 46.9397 37.7183 46.8618 37.8105ZM33.5845 37.4033C33.7021 37.1449 33.8232 36.8883 33.9478 36.6338C33.8232 36.8883 33.7021 37.1449 33.5845 37.4033ZM47.2778 37.335C47.3441 37.2616 47.4106 37.1885 47.478 37.1162C47.4106 37.1885 47.3441 37.2616 47.2778 37.335ZM47.6255 36.96C47.7119 36.8693 47.799 36.7793 47.8872 36.6904C47.799 36.7793 47.7119 36.8693 47.6255 36.96ZM48.0503 36.5283C48.1225 36.4573 48.1947 36.3863 48.2681 36.3164C48.1947 36.3863 48.1225 36.4573 48.0503 36.5283ZM34.3667 35.8086C34.5037 35.549 34.6453 35.2922 34.7896 35.0371C34.6453 35.2922 34.5037 35.549 34.3667 35.8086ZM48.4985 36.1016C48.5692 36.0364 48.6398 35.9713 48.7114 35.9072C48.6398 35.9713 48.5692 36.0364 48.4985 36.1016ZM48.8911 35.75C48.972 35.6795 49.0531 35.6092 49.1353 35.54C49.0531 35.6092 48.972 35.6795 48.8911 35.75ZM49.3755 35.3408C49.4451 35.2841 49.515 35.2276 49.5854 35.1719C49.515 35.2276 49.4451 35.2841 49.3755 35.3408ZM49.7886 35.0137C49.8779 34.945 49.9676 34.8767 50.0581 34.8096C49.9676 34.8767 49.8779 34.945 49.7886 35.0137ZM34.9829 34.7041C35.0689 34.5565 35.1543 34.4087 35.2427 34.2627C35.1543 34.4087 35.0689 34.5565 34.9829 34.7041ZM50.2417 34.6758C50.3338 34.6092 50.4267 34.5435 50.52 34.4785C50.4267 34.5435 50.3338 34.6092 50.2417 34.6758ZM50.7271 34.3359C50.7715 34.3059 50.8152 34.2748 50.8599 34.2451L51.104 34.0859C50.9771 34.1675 50.8519 34.2515 50.7271 34.3359ZM35.4556 33.9209C35.5357 33.7924 35.6148 33.6634 35.6968 33.5361C35.6148 33.6634 35.5357 33.7924 35.4556 33.9209ZM35.979 33.1104C36.0468 33.0088 36.1131 32.9063 36.1821 32.8057C36.1131 32.9063 36.0468 33.0088 35.979 33.1104ZM36.48 32.3828C36.5537 32.2791 36.6267 32.175 36.7017 32.0723C36.6267 32.175 36.5537 32.2791 36.48 32.3828ZM36.9409 31.752C37.0387 31.6216 37.136 31.491 37.2358 31.3623C37.136 31.491 37.0387 31.6216 36.9409 31.752ZM37.479 31.0557C37.5741 30.9362 37.6683 30.8162 37.7651 30.6982C37.6683 30.8162 37.5741 30.9362 37.479 31.0557ZM38.0562 30.3525C38.153 30.2381 38.2497 30.1237 38.3481 30.0107C38.2497 30.1237 38.153 30.2381 38.0562 30.3525ZM38.5923 29.7354C38.7074 29.6064 38.8226 29.4776 38.9399 29.3506C38.8226 29.4776 38.7074 29.6064 38.5923 29.7354ZM39.2075 29.0664C39.3132 28.9549 39.4186 28.8433 39.5259 28.7334C39.4186 28.8433 39.3132 28.9549 39.2075 29.0664ZM39.8374 28.4209C39.9381 28.3207 40.039 28.2208 40.1411 28.1221C40.039 28.2208 39.9381 28.3207 39.8374 28.4209ZM40.479 27.8008C40.583 27.7032 40.6871 27.6059 40.7925 27.5098C40.6871 27.6059 40.583 27.7032 40.479 27.8008ZM41.0884 27.2441C41.208 27.1378 41.3284 27.0322 41.4497 26.9277C41.3284 27.0322 41.208 27.1378 41.0884 27.2441ZM41.7856 26.6436C41.8981 26.5495 42.0107 26.4557 42.1245 26.3633C42.0107 26.4557 41.8981 26.5495 41.7856 26.6436ZM42.4253 26.1221C42.5624 26.0135 42.7003 25.906 42.8394 25.7998C42.7003 25.906 42.5624 26.0135 42.4253 26.1221ZM43.1177 25.5889C43.1885 25.536 43.2583 25.4819 43.3296 25.4297L43.6919 25.1689C43.4985 25.3064 43.3077 25.4471 43.1177 25.5889ZM42.4751 48.3643C42.4812 48.2929 42.4867 48.2215 42.4937 48.1504C42.4867 48.2215 42.4812 48.2929 42.4751 48.3643ZM43.0972 44.916C43.126 44.8126 43.1545 44.7092 43.1851 44.6064C43.1545 44.7092 43.126 44.8126 43.0972 44.916Z" fill="#2F2F2F"/>
</svg>
