<svg width="100" height="100" viewBox="0 0 100 100" fill="none" xmlns="http://www.w3.org/2000/svg">
<rect width="100" height="100" rx="20" fill="#575757"/>
<path d="M59.6929 32.0508H75.0278V75H24.9722V32.0508H41.0171V25H59.6929V32.0508ZM28.729 71.2432H71.27V35.8086H58.1567V41.3154H42.7495V35.8086H28.729V71.2432ZM33.7749 63.6748C35.1452 63.6748 36.2563 64.7859 36.2563 66.1562C36.2561 67.5264 35.1451 68.6367 33.7749 68.6367C32.4047 68.6367 31.2937 67.5264 31.2935 66.1562C31.2935 64.7859 32.4046 63.6748 33.7749 63.6748ZM66.2026 63.6748C67.573 63.6748 68.6841 64.7859 68.6841 66.1562C68.6838 67.5264 67.5728 68.6367 66.2026 68.6367C64.8326 68.6365 63.7224 67.5262 63.7222 66.1562C63.7222 64.7861 64.8325 63.675 66.2026 63.6748ZM44.4487 48.3955H41.314V50.3125H44.4487V52.5674H41.314V54.4844H44.4487V56.7393H41.314V58.6562H44.4487V60.9111L40.5923 60.9102H34.7036V57.0605H30.3472V49.9912H34.7036V46.1406H44.4487V48.3955ZM64.0581 58.9863H53.6812V48.0664H64.0581V58.9863ZM36.9575 49.9912H36.9585V57.0605H36.9575V58.6562H39.0601V48.3955H36.9575V49.9912ZM55.936 56.7314H61.8032V50.3213H55.936V56.7314ZM32.6021 54.8057H34.7036V52.2451H32.6021V54.8057ZM33.7749 38.6318C35.1451 38.6319 36.2561 39.7422 36.2563 41.1123C36.2563 42.4826 35.1452 43.5937 33.7749 43.5938C32.4046 43.5938 31.2935 42.4826 31.2935 41.1123C31.2937 39.7422 32.4047 38.6318 33.7749 38.6318ZM66.2026 38.6318C67.5728 38.6318 68.6839 39.7422 68.6841 41.1123C68.6841 42.4826 67.573 43.5938 66.2026 43.5938C64.8325 43.5935 63.7222 42.4825 63.7222 41.1123C63.7224 39.7423 64.8326 38.6321 66.2026 38.6318ZM45.0034 39.0605H55.9019V28.7998H45.0034V39.0605ZM49.7056 36.1592H47.4507V31.7021H49.7056V36.1592ZM53.5708 36.1592H51.3159V31.7021H53.5708V36.1592Z" fill="#2F2F2F"/>
</svg>
