<svg width="100" height="100" viewBox="0 0 100 100" fill="none" xmlns="http://www.w3.org/2000/svg">
<rect width="100" height="100" rx="20" fill="#575757"/>
<path d="M70.9253 35.0146L67.8491 37.5713L67.7612 37.6445L67.6958 37.5508C63.8217 31.932 57.3419 28.2486 50.0015 28.248C42.6602 28.2481 36.1798 31.9323 32.3052 37.5518L32.2407 37.6465L32.1519 37.5732L29.0747 35.0146L29.0005 34.9521L29.0562 34.873C33.4704 28.6605 40.5801 24.4964 48.6802 24.0859L48.688 24.0859L48.6958 24.085L48.6987 24.085L49.9829 24.0527L50.0015 24.0527C58.6453 24.0532 66.2915 28.3256 70.9438 34.873L70.9995 34.9521L70.9253 35.0146ZM70.9438 65.127C66.3642 71.5722 58.8834 75.8129 50.4058 75.9443L50.0015 75.9473L49.9829 75.9473L48.6987 75.915L48.688 75.915L48.6802 75.9141C40.58 75.5036 33.4704 71.3395 29.0562 65.127L29.0005 65.0478L29.0747 64.9853L32.1519 62.4277L32.2407 62.3545L32.3052 62.4482C36.1798 68.0677 42.6602 71.7519 50.0015 71.752C57.3418 71.7514 63.8217 68.0688 67.6958 62.4502L67.7612 62.3555L67.8491 62.4287L70.9253 64.9854L70.9995 65.0479L70.9438 65.127ZM33.5825 35.7217C33.3724 35.9677 33.1663 36.2173 32.9673 36.4727C33.1663 36.2173 33.3724 35.9677 33.5825 35.7217ZM63.4351 41.2412L60.5054 43.6758L60.4106 43.7549L60.3481 43.6484C58.262 40.1057 54.4096 37.728 50.0015 37.7275C45.5925 37.7276 41.7385 40.1061 39.6519 43.6494L39.5894 43.7549L39.4946 43.6768L36.5649 41.2412L36.4937 41.1816L36.5444 41.1035C39.2478 36.8946 43.8714 34.0356 49.1792 33.7666L49.1948 33.7656L49.1978 33.7656L49.9839 33.7471L50.0015 33.7471C55.6506 33.7476 60.6138 36.6794 63.4556 41.1035L63.5063 41.1816L63.4351 41.2412ZM63.4556 58.8965C60.6582 63.2515 55.8056 66.1616 50.2661 66.252L50.0015 66.2539L49.9839 66.2539L49.1978 66.2344L49.1948 66.2344L49.1792 66.2334C43.8713 65.9644 39.2478 63.1055 36.5444 58.8965L36.4937 58.8184L36.5649 58.7588L39.4946 56.3232L39.5894 56.2451L39.6519 56.3516C41.7385 59.8949 45.5925 62.2724 50.0015 62.2725C54.4097 62.272 58.262 59.8944 60.3481 56.3516L60.4106 56.2451L60.5054 56.3242L63.4351 58.7588L63.5063 58.8184L63.4556 58.8965ZM40.1157 42.7422C39.92 43.0186 39.7345 43.3028 39.562 43.5957C39.7345 43.3028 39.92 43.0186 40.1157 42.7422ZM41.3022 41.3125C41.1662 41.453 41.0329 41.5962 40.9038 41.7432C41.0329 41.5962 41.1662 41.453 41.3022 41.3125ZM55.2622 50C55.2622 52.9058 52.9062 55.2615 50.0005 55.2617C47.0946 55.2617 44.7388 52.9059 44.7388 50C44.7389 47.0942 47.0946 44.7383 50.0005 44.7383C52.9062 44.7385 55.2621 47.0943 55.2622 50ZM46.4438 24.4023L46.4438 24.4033L46.4438 24.4023ZM50.4048 24.1611L50.0015 24.1572C50.1933 24.1572 50.3848 24.1618 50.5757 24.166C50.5188 24.1648 50.4618 24.162 50.4048 24.1611ZM50.2642 33.8535L50.0015 33.8516C50.1405 33.8516 50.2793 33.8548 50.4175 33.8584C50.3664 33.8571 50.3153 33.8543 50.2642 33.8535ZM50.9321 33.8799C50.8334 33.8742 50.7345 33.8691 50.6353 33.8652C50.7345 33.8691 50.8334 33.8742 50.9321 33.8799ZM51.3745 24.1963C51.265 24.1905 51.1553 24.1851 51.0454 24.1807C51.1553 24.1851 51.265 24.1905 51.3745 24.1963ZM51.4634 33.9189C51.3511 33.9087 51.2385 33.8995 51.1255 33.8916C51.2385 33.8995 51.3511 33.9087 51.4634 33.9189ZM51.9097 33.9668C51.8233 33.9564 51.7367 33.9465 51.6499 33.9375C51.7367 33.9465 51.8233 33.9564 51.9097 33.9668ZM52.1685 24.25C52.0489 24.24 51.9291 24.231 51.8091 24.2227C51.9291 24.231 52.0489 24.24 52.1685 24.25ZM52.436 34.0391C52.3535 34.0264 52.2709 34.0134 52.188 34.002C52.2709 34.0134 52.3535 34.0264 52.436 34.0391ZM52.9771 24.3311C52.8306 24.3141 52.6838 24.2977 52.5366 24.2832C52.6838 24.2977 52.8306 24.3141 52.9771 24.3311ZM52.9419 34.125C52.8516 34.1081 52.7612 34.0916 52.6704 34.0762C52.7612 34.0916 52.8516 34.1081 52.9419 34.125ZM53.4106 34.2197C53.3356 34.2033 53.2605 34.1872 53.1851 34.1719C53.2605 34.1872 53.3356 34.2033 53.4106 34.2197ZM53.7114 24.4268C53.5818 24.4079 53.452 24.3899 53.3218 24.373C53.452 24.3899 53.5818 24.4079 53.7114 24.4268ZM53.9731 34.3545C53.8605 34.3255 53.7478 34.2961 53.6343 34.2695C53.7478 34.2961 53.8605 34.3255 53.9731 34.3545ZM54.4761 24.5508C54.35 24.5285 54.2239 24.5058 54.0972 24.4854C54.2239 24.5058 54.35 24.5285 54.4761 24.5508ZM54.5005 34.5C54.3705 34.4616 54.2402 34.4238 54.1089 34.3887C54.2402 34.4238 54.3705 34.4616 54.5005 34.5ZM54.8481 34.6074C54.7611 34.5795 54.6742 34.5508 54.5864 34.5244C54.6741 34.5508 54.7611 34.5795 54.8481 34.6074ZM55.3188 24.7139C55.1624 24.6808 55.0056 24.6484 54.8481 24.6182C55.0056 24.6484 55.1624 24.6808 55.3188 24.7139ZM55.3667 34.7832C55.2768 34.7509 55.1869 34.7182 55.0962 34.6875C55.1869 34.7182 55.2768 34.7509 55.3667 34.7832ZM55.8062 34.9482C55.7185 34.9138 55.6309 34.8787 55.5425 34.8457C55.6309 34.8787 55.7185 34.9138 55.8062 34.9482ZM56.0454 24.8789C55.8873 24.8406 55.7291 24.802 55.5698 24.7666C55.7291 24.802 55.8873 24.8406 56.0454 24.8789ZM56.3755 35.1846C56.2483 35.1287 56.1206 35.074 55.9917 35.0215C56.1206 35.074 56.2483 35.1287 56.3755 35.1846ZM56.7563 25.0625C56.6189 25.0249 56.4816 24.9865 56.3433 24.9512C56.4816 24.9865 56.6189 25.0249 56.7563 25.0625ZM56.7563 35.3584C56.6471 35.3069 56.5379 35.2551 56.4272 35.2061C56.5379 35.2551 56.6471 35.3069 56.7563 35.3584ZM57.4624 25.2666C57.335 25.2278 57.2079 25.1873 57.0796 25.1504C57.2079 25.1873 57.335 25.2278 57.4624 25.2666ZM58.2173 36.1416C58.0569 36.0443 57.895 35.9491 57.731 35.8574C57.895 35.9491 58.0569 36.0443 58.2173 36.1416ZM58.1548 63.8965L58.1558 63.8965L58.1548 63.8965ZM58.3081 25.54C58.1378 25.4816 57.9673 25.4231 57.7954 25.3682C57.9673 25.4231 58.1378 25.4816 58.3081 25.54ZM58.8843 25.7451C58.7503 25.6955 58.616 25.6461 58.481 25.5986C58.616 25.6461 58.7503 25.6954 58.8843 25.7451ZM59.3638 36.9053C59.2972 36.8566 59.2289 36.8104 59.1616 36.7627C59.2289 36.8104 59.2972 36.8566 59.3638 36.9053ZM59.4224 25.9521C59.3633 25.9287 59.3049 25.9038 59.2456 25.8809C59.3049 25.9038 59.3633 25.9287 59.4224 25.9521ZM59.7329 37.1846C59.6814 37.1445 59.6287 37.1058 59.5767 37.0664C59.6287 37.1058 59.6814 37.1445 59.7329 37.1846ZM60.1216 37.4961C60.0608 37.4457 59.9986 37.3971 59.937 37.3477C59.9986 37.3971 60.0608 37.4457 60.1216 37.4961ZM60.4761 37.7988C60.405 37.7363 60.3325 37.6755 60.2603 37.6143C60.3325 37.6755 60.405 37.7363 60.4761 37.7988ZM60.9937 26.6377C60.8582 26.5731 60.7231 26.5076 60.5864 26.4453C60.7231 26.5076 60.8582 26.5731 60.9937 26.6377ZM60.8345 38.124C60.7735 38.0671 60.7117 38.0111 60.6499 37.9551C60.7117 38.0111 60.7735 38.0671 60.8345 38.124ZM61.1987 38.4756C61.1263 38.4035 61.0528 38.3324 60.979 38.2617C61.0528 38.3324 61.1263 38.4035 61.1987 38.4756ZM61.5229 38.8076C61.4501 38.7308 61.3756 38.6555 61.3013 38.5801C61.3756 38.6555 61.4501 38.7308 61.5229 38.8076ZM61.8481 39.1611C61.7865 39.092 61.7235 39.0241 61.6606 38.9561C61.7235 39.0241 61.7865 39.092 61.8481 39.1611ZM62.1431 39.501C62.0959 39.445 62.0474 39.3902 61.9995 39.335C62.0474 39.3902 62.0959 39.445 62.1431 39.501ZM62.4712 39.9043C62.4188 39.8379 62.3664 39.7716 62.313 39.7061C62.3664 39.7716 62.4188 39.8379 62.4712 39.9043ZM62.7603 40.2822C62.7016 40.2031 62.6417 40.1249 62.5815 40.0469C62.6417 40.1249 62.7016 40.2031 62.7603 40.2822ZM63.0464 40.6797C62.9905 40.5993 62.9337 40.5197 62.8765 40.4404C62.9337 40.5197 62.9905 40.5993 63.0464 40.6797ZM63.2173 27.834C63.1344 27.7839 63.0498 27.7367 62.9663 27.6875C63.0498 27.7367 63.1344 27.7839 63.2173 27.834ZM63.2339 40.9551C63.2076 40.9154 63.1805 40.8763 63.1538 40.8369C63.2262 40.9438 63.2978 41.0514 63.3677 41.1602L63.2339 40.9551ZM63.8647 28.2393C63.7297 28.1519 63.5923 28.0682 63.4556 27.9834C63.5923 28.0682 63.7297 28.1519 63.8647 28.2393ZM65.0405 29.0469C64.9603 28.9884 64.8783 28.9325 64.7974 28.875C64.8783 28.9325 64.9603 28.9884 65.0405 29.0469ZM65.6372 29.4951C65.5563 29.4325 65.4737 29.3722 65.3921 29.3105C65.4737 29.3722 65.5563 29.4325 65.6372 29.4951ZM66.2046 29.9473C66.1294 29.8856 66.053 29.8255 65.9771 29.7646C66.0529 29.8255 66.1294 29.8856 66.2046 29.9473ZM66.7954 30.4473C66.6952 30.3599 66.5933 30.2743 66.4917 30.1885C66.5933 30.2743 66.6952 30.3599 66.7954 30.4473ZM67.4097 69L67.4106 69L67.4097 69ZM67.3384 30.9355C67.2374 30.8424 67.1351 30.7507 67.0327 30.6592C67.1351 30.7507 67.2374 30.8424 67.3384 30.9355ZM67.8491 31.4209C67.7642 31.3381 67.6783 31.2564 67.5923 31.1748C67.6783 31.2564 67.7642 31.3381 67.8491 31.4209ZM68.3765 31.9492C68.3041 31.8744 68.231 31.8005 68.1577 31.7266C68.231 31.8005 68.3041 31.8744 68.3765 31.9492ZM68.8853 32.4912C68.804 32.4022 68.7216 32.3144 68.6392 32.2266C68.7216 32.3144 68.804 32.4022 68.8853 32.4912ZM69.3872 33.0566C69.2999 32.9552 69.2114 32.8549 69.1226 32.7549C69.2114 32.8549 69.2999 32.9552 69.3872 33.0566ZM69.8608 33.624C69.7757 33.5192 69.6898 33.415 69.603 33.3115C69.6898 33.415 69.7757 33.5192 69.8608 33.624ZM70.3179 34.2031C70.2333 34.0926 70.1474 33.9831 70.061 33.874C70.1474 33.9831 70.2333 34.0926 70.3179 34.2031ZM70.6382 34.6299C70.6015 34.5798 70.5639 34.5303 70.5269 34.4805C70.6385 34.6305 70.7495 34.7811 70.8579 34.9336L70.6382 34.6299ZM58.5591 36.3545C58.4462 36.2821 58.3321 36.2112 58.2173 36.1416C58.3321 36.2112 58.4462 36.2821 58.5591 36.3545ZM64.4741 28.6455C64.3309 28.547 64.1858 28.4511 64.0405 28.3555C64.1858 28.4511 64.3309 28.547 64.4741 28.6455Z" fill="#2F2F2F"/>
</svg>
