<svg width="100" height="100" viewBox="0 0 100 100" fill="none" xmlns="http://www.w3.org/2000/svg">
<rect width="100" height="100" rx="20" fill="url(#paint0_linear_44_818)"/>
<path d="M56.3799 25.0664C64.0527 30.5184 69.1013 39.4242 69.2578 49.5166L69.2617 49.998V50.0195L69.2227 51.5488V51.5615L69.2217 51.5713C68.733 61.2144 63.7758 69.6786 56.3799 74.9336L56.2861 75L56.2119 74.9111L53.166 71.248L53.0791 71.1426L53.1914 71.0654C59.8813 66.4528 64.2665 58.7377 64.2666 49.998C64.266 41.2594 59.8823 33.5446 53.1934 28.9326L53.0801 28.8555L53.168 28.75L56.2119 25.0889L56.2861 25L56.3799 25.0664ZM48.9629 33.9805C54.1475 37.3106 57.611 43.088 57.7188 49.6826L57.7207 49.998V50.0195L57.6982 50.9541V50.958L57.6973 50.9775C57.377 57.2964 53.9735 62.8003 48.9629 66.0186L48.8701 66.0791L48.7988 65.9941L45.9004 62.5059L45.8066 62.3936L45.9326 62.3184C50.1508 59.8342 52.9814 55.2468 52.9814 49.998C52.9809 44.7501 50.1503 40.1641 45.9326 37.6807L45.8066 37.6055L45.9004 37.4932L48.7988 34.0059L48.8701 33.9209L48.9629 33.9805ZM59.2891 65.3682V65.3672V65.3682ZM38.3721 42.3662C42.588 42.3663 46.0058 45.7841 46.0059 50C46.0057 54.2158 42.5879 57.6337 38.3721 57.6338C34.1562 57.6338 30.7385 54.2158 30.7383 50C30.7383 45.7841 34.1561 42.3662 38.3721 42.3662ZM38.3721 46.8574C36.6368 46.8574 35.2295 48.2647 35.2295 50C35.2297 51.7351 36.6369 53.1416 38.3721 53.1416C40.1072 53.1415 41.5135 51.7351 41.5137 50C41.5137 48.2647 40.1073 46.8575 38.3721 46.8574ZM46.3906 37.8135H46.3916H46.3906Z" fill="#0CAA43"/>
<defs>
<linearGradient id="paint0_linear_44_818" x1="50" y1="100" x2="50" y2="0" gradientUnits="userSpaceOnUse">
<stop stop-color="#D0FBDE"/>
<stop offset="1" stop-color="white"/>
</linearGradient>
</defs>
</svg>
