<?xml version="1.0" encoding="UTF-8"?>
<svg id="Layer_1" data-name="Layer 1" xmlns="http://www.w3.org/2000/svg" viewBox="0 0 5623.3 3548.51">
  <defs>
    <style>
      .cls-1 {
        letter-spacing: -.06em;
      }

      .cls-2 {
        fill: #f7f9fc;
      }

      .cls-3 {
        fill: #d9534f;
      }

      .cls-4 {
        fill: #6d8faa;
      }

      .cls-5 {
        fill: #00c264;
      }

      .cls-6 {
        fill: #0c0c0c;
      }

      .cls-7 {
        fill: #25bfef;
      }

      .cls-8 {
        fill: #f15822;
      }

      .cls-9 {
        letter-spacing: -.15em;
      }

      .cls-10 {
        fill: #3e7ec0;
      }

      .cls-11 {
        fill: #e7f0f7;
      }

      .cls-12 {
        font-family: MyriadPro-Regular, 'Myriad Pro';
        font-size: 156.88px;
      }

      .cls-13 {
        letter-spacing: 0em;
      }

      .cls-14 {
        letter-spacing: -.06em;
      }

      .cls-15 {
        fill: #0f0f0f;
      }

      .cls-16 {
        fill: #48c4b7;
      }

      .cls-17 {
        fill: #a7b4c2;
      }

      .cls-18 {
        letter-spacing: -.07em;
      }

      .cls-19 {
        letter-spacing: -.07em;
      }

      .cls-20 {
        fill: #f5a623;
      }

      .cls-21 {
        letter-spacing: -.01em;
      }

      .cls-22 {
        fill: #fff;
        font-family: SpaceGrotesk-Bold, 'Space Grotesk';
        font-size: 144.51px;
        font-variation-settings: 'wght' 700;
        font-weight: 700;
      }
    </style>
  </defs>
  <rect class="cls-10" x="4663.75" y="2084.13" width="959.56" height="539.75"/>
  <rect class="cls-6" x="1763.83" y="409.78" width="1920" height="1080"/>
  <g>
    <g>
      <path class="cls-10" d="M170.19,647.75v132.85H37.34l47-47c5.51,5.47,12.7,8.21,19.9,8.21,5.19,0,10.39-1.43,14.96-4.28.4-.25.79-.51,1.17-.77,1.36-.95,2.64-2.02,3.85-3.23,5.51-5.51,8.27-12.75,8.27-19.98s-2.74-14.39-8.2-19.9l45.9-45.9Z"/>
      <g>
        <g>
          <path class="cls-10" d="M123.97,693.34l-39.95,39.95c-.08-.08-.16-.16-.24-.23-5.52-5.52-8.28-12.75-8.28-19.98,0-7.23,2.76-14.46,8.28-19.98,1.21-1.21,2.5-2.28,3.85-3.22.39-.27.78-.53,1.17-.78,4.56-2.85,9.76-4.28,14.96-4.28,7.23,0,14.46,2.76,19.98,8.28.08.08.16.16.23.24Z"/>
          <path class="cls-10" d="M103.76,664.81c-12.35,0-24.7,4.71-34.13,14.14-9.42,9.42-14.14,21.78-14.14,34.13h-17.33c0-16.79,6.4-33.58,19.21-46.38,12.81-12.81,29.59-19.21,46.38-19.21v17.33Z"/>
          <path class="cls-10" d="M103.76,626.64c-22.12,0-44.24,8.44-61.12,25.32-16.88,16.88-25.32,39-25.32,61.12H0c0-26.55,10.13-53.11,30.39-73.37,20.26-20.26,46.82-30.39,73.37-30.39v17.33Z"/>
        </g>
        <path class="cls-10" d="M124.29,693.65l-39.95,39.95s-.05-.05-.08-.07c-.08-.08-.16-.16-.23-.24l39.95-39.95c.08.08.16.16.24.23.02.02.05.05.07.08Z"/>
      </g>
    </g>
    <g>
      <path d="M237.8,780.6v-110.77h-38.96v-22.92h103.13v22.92h-38.96v110.77h-25.21Z"/>
      <path d="M312.48,783.27c-6.75,0-12.8-1.18-18.14-3.53-5.35-2.35-9.58-5.79-12.7-10.31-3.12-4.52-4.68-10.03-4.68-16.52s1.56-11.94,4.68-16.33c3.12-4.39,7.45-7.7,12.99-9.93,5.54-2.23,11.87-3.34,19-3.34h25.97v-5.35c0-4.45-1.4-8.12-4.2-10.98-2.8-2.86-7.26-4.3-13.37-4.3s-10.44,1.37-13.37,4.11c-2.93,2.74-4.84,6.27-5.73,10.6l-22.15-7.45c1.53-4.84,3.98-9.26,7.35-13.27,3.37-4.01,7.89-7.26,13.56-9.74,5.66-2.48,12.57-3.72,20.72-3.72,12.48,0,22.35,3.12,29.6,9.36,7.26,6.24,10.89,15.28,10.89,27.12v35.33c0,3.82,1.78,5.73,5.35,5.73h7.64v19.86h-16.04c-4.71,0-8.59-1.15-11.65-3.44-3.06-2.29-4.58-5.35-4.58-9.17v-.19h-3.63c-.51,1.53-1.66,3.53-3.44,6.02-1.78,2.48-4.58,4.68-8.4,6.59s-9.04,2.87-15.66,2.87ZM316.68,763.79c6.75,0,12.25-1.88,16.52-5.63,4.26-3.75,6.4-8.75,6.4-14.99v-1.91h-24.26c-4.46,0-7.96.95-10.5,2.86-2.55,1.91-3.82,4.58-3.82,8.02s1.34,6.24,4.01,8.4c2.67,2.17,6.56,3.25,11.65,3.25Z"/>
      <path d="M377.41,733.61v-3.06c0-9.93,1.97-18.43,5.92-25.5,3.95-7.07,9.2-12.48,15.76-16.23,6.56-3.75,13.72-5.63,21.49-5.63,8.66,0,15.21,1.53,19.67,4.58,4.45,3.06,7.7,6.24,9.74,9.55h3.44v-11.46h23.68v111.53c0,6.49-1.91,11.68-5.73,15.56-3.82,3.88-8.91,5.83-15.28,5.83h-63.41v-21.01h55c3.56,0,5.35-1.91,5.35-5.73v-24.64h-3.44c-1.27,2.04-3.06,4.11-5.35,6.21-2.29,2.1-5.35,3.85-9.17,5.25-3.82,1.4-8.66,2.1-14.52,2.1-7.77,0-14.93-1.88-21.49-5.63-6.56-3.75-11.81-9.17-15.76-16.23-3.95-7.07-5.92-15.56-5.92-25.5ZM427.45,759.97c7.38,0,13.56-2.35,18.53-7.07,4.97-4.71,7.45-11.33,7.45-19.86v-1.91c0-8.66-2.45-15.31-7.35-19.96-4.9-4.65-11.11-6.97-18.62-6.97s-13.56,2.32-18.53,6.97c-4.97,4.65-7.45,11.3-7.45,19.96v1.91c0,8.53,2.48,15.15,7.45,19.86,4.97,4.71,11.14,7.07,18.53,7.07Z"/>
      <path d="M491.8,780.6v-133.69h85.94v22.92h-60.73v31.89h55.38v22.92h-55.38v33.04h61.88v22.92h-87.09Z"/>
      <path d="M620.91,783.27c-6.75,0-12.8-1.18-18.14-3.53-5.35-2.35-9.58-5.79-12.7-10.31-3.12-4.52-4.68-10.03-4.68-16.52s1.56-11.94,4.68-16.33c3.12-4.39,7.45-7.7,12.99-9.93,5.54-2.23,11.87-3.34,19-3.34h25.97v-5.35c0-4.45-1.4-8.12-4.2-10.98-2.8-2.86-7.26-4.3-13.37-4.3s-10.44,1.37-13.37,4.11c-2.93,2.74-4.84,6.27-5.73,10.6l-22.15-7.45c1.53-4.84,3.98-9.26,7.35-13.27,3.37-4.01,7.89-7.26,13.56-9.74,5.66-2.48,12.57-3.72,20.72-3.72,12.48,0,22.35,3.12,29.6,9.36,7.26,6.24,10.89,15.28,10.89,27.12v35.33c0,3.82,1.78,5.73,5.35,5.73h7.64v19.86h-16.04c-4.71,0-8.59-1.15-11.65-3.44-3.06-2.29-4.58-5.35-4.58-9.17v-.19h-3.63c-.51,1.53-1.66,3.53-3.44,6.02-1.78,2.48-4.58,4.68-8.4,6.59-3.82,1.91-9.04,2.87-15.66,2.87ZM625.11,763.79c6.75,0,12.25-1.88,16.52-5.63,4.26-3.75,6.4-8.75,6.4-14.99v-1.91h-24.26c-4.46,0-7.96.95-10.5,2.86-2.55,1.91-3.82,4.58-3.82,8.02s1.34,6.24,4.01,8.4c2.67,2.17,6.56,3.25,11.65,3.25Z"/>
      <path d="M730.91,783.27c-12.35,0-22.47-2.67-30.37-8.02-7.9-5.35-12.67-12.99-14.32-22.92l22.15-5.73c.89,4.46,2.39,7.96,4.49,10.5,2.1,2.55,4.71,4.36,7.83,5.44,3.12,1.08,6.52,1.62,10.22,1.62,5.6,0,9.74-.98,12.41-2.96,2.67-1.97,4.01-4.42,4.01-7.35s-1.27-5.19-3.82-6.78c-2.55-1.59-6.62-2.89-12.22-3.92l-5.35-.95c-6.62-1.27-12.67-3.02-18.14-5.25-5.48-2.23-9.87-5.32-13.18-9.26-3.31-3.95-4.97-9.04-4.97-15.28,0-9.42,3.44-16.65,10.31-21.68,6.87-5.03,15.91-7.54,27.12-7.54,10.57,0,19.35,2.36,26.36,7.07,7,4.71,11.58,10.89,13.75,18.52l-22.35,6.88c-1.02-4.84-3.09-8.28-6.21-10.31-3.12-2.03-6.97-3.06-11.55-3.06s-8.09.8-10.5,2.39c-2.42,1.59-3.63,3.79-3.63,6.59,0,3.06,1.27,5.32,3.82,6.78,2.55,1.47,5.98,2.58,10.31,3.34l5.35.95c7.13,1.27,13.59,2.96,19.38,5.06,5.79,2.1,10.38,5.09,13.75,8.98,3.37,3.89,5.06,9.14,5.06,15.76,0,9.93-3.6,17.6-10.79,23.01-7.19,5.41-16.84,8.12-28.93,8.12Z"/>
      <path d="M826.4,783.27c-9.42,0-17.73-2.01-24.92-6.02-7.19-4.01-12.8-9.67-16.81-17-4.01-7.32-6.02-15.95-6.02-25.88v-2.29c0-9.93,1.97-18.56,5.92-25.88,3.95-7.32,9.48-12.99,16.62-17,7.13-4.01,15.4-6.02,24.83-6.02s17.38,2.07,24.25,6.21c6.88,4.14,12.22,9.87,16.04,17.19,3.82,7.32,5.73,15.82,5.73,25.5v8.21h-68.94c.25,6.49,2.67,11.78,7.26,15.85,4.58,4.08,10.18,6.11,16.81,6.11s11.71-1.46,14.9-4.39c3.18-2.93,5.6-6.17,7.26-9.74l19.67,10.31c-1.78,3.31-4.36,6.91-7.73,10.79-3.38,3.89-7.86,7.19-13.46,9.93-5.6,2.74-12.73,4.11-21.39,4.11ZM803.29,722.35h44.31c-.51-5.47-2.71-9.86-6.59-13.18-3.89-3.31-8.95-4.97-15.18-4.97s-11.65,1.66-15.47,4.97c-3.82,3.31-6.18,7.71-7.07,13.18Z"/>
    </g>
  </g>
  <rect class="cls-6" x="3704.33" y="1540.8" width="959.56" height="539.75"/>
  <g>
    <g>
      <path class="cls-10" d="M4029.42,1765.61v67.54h-67.54l23.89-23.89c2.8,2.78,6.46,4.17,10.12,4.17,2.64,0,5.28-.73,7.6-2.17.2-.13.4-.26.59-.39.69-.48,1.34-1.03,1.96-1.64,2.8-2.8,4.21-6.48,4.21-10.16s-1.39-7.32-4.17-10.12l23.33-23.33Z"/>
      <g>
        <g>
          <path class="cls-10" d="M4005.92,1788.79l-20.31,20.31s-.08-.08-.12-.12c-2.8-2.8-4.21-6.48-4.21-10.16,0-3.68,1.4-7.35,4.21-10.16.61-.61,1.27-1.16,1.96-1.64.2-.14.4-.27.6-.39,2.32-1.45,4.96-2.17,7.6-2.17,3.68,0,7.35,1.4,10.16,4.21.04.04.08.08.12.12Z"/>
          <path class="cls-10" d="M3995.65,1774.29c-6.28,0-12.56,2.4-17.35,7.19-4.79,4.79-7.19,11.07-7.19,17.35h-8.81c0-8.53,3.26-17.07,9.77-23.58,6.51-6.51,15.05-9.77,23.58-9.77v8.81Z"/>
          <path class="cls-10" d="M3995.65,1754.88c-11.25,0-22.49,4.29-31.07,12.87-8.58,8.58-12.87,19.83-12.87,31.07h-8.81c0-13.5,5.15-27,15.45-37.3,10.3-10.3,23.8-15.45,37.3-15.45v8.81Z"/>
        </g>
        <path class="cls-10" d="M4006.08,1788.95l-20.31,20.31s-.03-.02-.04-.04c-.04-.04-.08-.08-.12-.12l20.31-20.31s.08.08.12.12c.01.01.03.03.04.04Z"/>
      </g>
    </g>
    <g>
      <path class="cls-11" d="M4063.79,1833.15v-56.31h-19.81v-11.65h52.43v11.65h-19.81v56.31h-12.82Z"/>
      <path class="cls-11" d="M4101.76,1834.51c-3.43,0-6.51-.6-9.22-1.8-2.72-1.2-4.87-2.94-6.46-5.24-1.59-2.3-2.38-5.1-2.38-8.4s.79-6.07,2.38-8.3c1.59-2.23,3.79-3.92,6.6-5.05,2.82-1.13,6.03-1.7,9.66-1.7h13.2v-2.72c0-2.26-.71-4.13-2.14-5.58-1.42-1.46-3.69-2.18-6.8-2.18s-5.31.7-6.8,2.09c-1.49,1.39-2.46,3.19-2.91,5.39l-11.26-3.79c.78-2.46,2.02-4.71,3.74-6.75,1.71-2.04,4.01-3.69,6.89-4.95,2.88-1.26,6.39-1.89,10.53-1.89,6.34,0,11.36,1.59,15.05,4.76,3.69,3.17,5.53,7.77,5.53,13.79v17.96c0,1.94.91,2.91,2.72,2.91h3.88v10.1h-8.16c-2.4,0-4.37-.58-5.92-1.75-1.55-1.17-2.33-2.72-2.33-4.66v-.1h-1.84c-.26.78-.84,1.8-1.75,3.06-.91,1.26-2.33,2.38-4.27,3.35-1.94.97-4.6,1.46-7.96,1.46ZM4103.89,1824.61c3.43,0,6.23-.95,8.4-2.86,2.17-1.91,3.25-4.45,3.25-7.62v-.97h-12.33c-2.27,0-4.05.49-5.34,1.46-1.3.97-1.94,2.33-1.94,4.08s.68,3.17,2.04,4.27c1.36,1.1,3.33,1.65,5.92,1.65Z"/>
      <path class="cls-11" d="M4134.77,1809.27v-1.55c0-5.05,1-9.37,3.01-12.96,2.01-3.59,4.68-6.34,8.01-8.25,3.33-1.91,6.97-2.86,10.92-2.86,4.4,0,7.73.78,10,2.33,2.26,1.55,3.92,3.17,4.95,4.85h1.75v-5.83h12.04v56.7c0,3.3-.97,5.94-2.91,7.91-1.94,1.97-4.53,2.96-7.77,2.96h-32.24v-10.68h27.96c1.81,0,2.72-.97,2.72-2.91v-12.52h-1.75c-.65,1.04-1.55,2.09-2.72,3.16-1.16,1.07-2.72,1.96-4.66,2.67-1.94.71-4.4,1.07-7.38,1.07-3.95,0-7.59-.95-10.92-2.86-3.33-1.91-6-4.66-8.01-8.25-2.01-3.59-3.01-7.91-3.01-12.96ZM4160.21,1822.67c3.75,0,6.89-1.2,9.42-3.59,2.52-2.39,3.79-5.76,3.79-10.1v-.97c0-4.4-1.25-7.78-3.74-10.15-2.49-2.36-5.65-3.54-9.47-3.54s-6.89,1.18-9.42,3.54c-2.52,2.36-3.79,5.75-3.79,10.15v.97c0,4.34,1.26,7.7,3.79,10.1,2.52,2.4,5.66,3.59,9.42,3.59Z"/>
      <path class="cls-11" d="M4192.92,1833.15v-67.97h43.69v11.65h-30.88v16.21h28.16v11.65h-28.16v16.8h31.46v11.65h-44.27Z"/>
      <path class="cls-11" d="M4258.56,1834.51c-3.43,0-6.51-.6-9.22-1.8-2.72-1.2-4.87-2.94-6.46-5.24-1.59-2.3-2.38-5.1-2.38-8.4s.79-6.07,2.38-8.3c1.59-2.23,3.79-3.92,6.6-5.05,2.82-1.13,6.03-1.7,9.66-1.7h13.2v-2.72c0-2.26-.71-4.13-2.14-5.58-1.42-1.46-3.69-2.18-6.8-2.18s-5.31.7-6.8,2.09c-1.49,1.39-2.46,3.19-2.91,5.39l-11.26-3.79c.78-2.46,2.02-4.71,3.74-6.75,1.71-2.04,4.01-3.69,6.89-4.95,2.88-1.26,6.39-1.89,10.53-1.89,6.34,0,11.36,1.59,15.05,4.76,3.69,3.17,5.53,7.77,5.53,13.79v17.96c0,1.94.91,2.91,2.72,2.91h3.88v10.1h-8.16c-2.4,0-4.37-.58-5.92-1.75-1.55-1.17-2.33-2.72-2.33-4.66v-.1h-1.84c-.26.78-.84,1.8-1.75,3.06-.91,1.26-2.33,2.38-4.27,3.35s-4.6,1.46-7.96,1.46ZM4260.69,1824.61c3.43,0,6.23-.95,8.4-2.86,2.17-1.91,3.25-4.45,3.25-7.62v-.97h-12.33c-2.27,0-4.05.49-5.34,1.46-1.3.97-1.94,2.33-1.94,4.08s.68,3.17,2.04,4.27c1.36,1.1,3.33,1.65,5.92,1.65Z"/>
      <path class="cls-11" d="M4314.48,1834.51c-6.28,0-11.43-1.36-15.44-4.08-4.01-2.72-6.44-6.6-7.28-11.65l11.26-2.91c.45,2.27,1.21,4.05,2.28,5.34,1.07,1.3,2.39,2.22,3.98,2.77,1.59.55,3.32.82,5.19.82,2.85,0,4.95-.5,6.31-1.5,1.36-1,2.04-2.25,2.04-3.74s-.65-2.64-1.94-3.45c-1.3-.81-3.37-1.47-6.21-1.99l-2.72-.49c-3.37-.65-6.44-1.54-9.22-2.67-2.78-1.13-5.02-2.7-6.7-4.71-1.68-2.01-2.52-4.6-2.52-7.77,0-4.79,1.75-8.46,5.24-11.02,3.5-2.56,8.09-3.83,13.79-3.83,5.37,0,9.84,1.2,13.4,3.59,3.56,2.4,5.89,5.53,6.99,9.42l-11.36,3.5c-.52-2.46-1.57-4.21-3.16-5.24-1.59-1.03-3.54-1.55-5.87-1.55s-4.11.41-5.34,1.21c-1.23.81-1.84,1.93-1.84,3.35,0,1.55.65,2.7,1.94,3.45,1.29.75,3.04,1.31,5.24,1.7l2.72.49c3.62.65,6.91,1.51,9.86,2.57,2.94,1.07,5.27,2.59,6.99,4.56,1.71,1.98,2.57,4.65,2.57,8.01,0,5.05-1.83,8.95-5.49,11.7-3.66,2.75-8.56,4.13-14.71,4.13Z"/>
      <path class="cls-11" d="M4363.03,1834.51c-4.79,0-9.01-1.02-12.67-3.06-3.66-2.04-6.51-4.92-8.54-8.64-2.04-3.72-3.06-8.11-3.06-13.16v-1.17c0-5.05,1-9.43,3.01-13.16,2.01-3.72,4.82-6.6,8.45-8.64,3.62-2.04,7.83-3.06,12.62-3.06s8.84,1.05,12.33,3.16c3.5,2.1,6.21,5.02,8.16,8.74,1.94,3.72,2.91,8.04,2.91,12.96v4.18h-35.05c.13,3.3,1.36,5.99,3.69,8.06,2.33,2.07,5.18,3.11,8.54,3.11s5.95-.74,7.57-2.23c1.62-1.49,2.85-3.14,3.69-4.95l10,5.24c-.91,1.68-2.22,3.51-3.93,5.49-1.72,1.98-4,3.66-6.85,5.05-2.85,1.39-6.47,2.09-10.87,2.09ZM4351.28,1803.54h22.53c-.26-2.78-1.38-5.02-3.35-6.7-1.98-1.68-4.55-2.52-7.72-2.52s-5.92.84-7.86,2.52c-1.94,1.68-3.14,3.92-3.59,6.7Z"/>
    </g>
  </g>
  <g>
    <g>
      <path class="cls-11" d="M5030.3,2335.16v67.54h-67.54l23.89-23.89c2.8,2.78,6.46,4.17,10.12,4.17,2.64,0,5.28-.73,7.6-2.17.2-.13.4-.26.59-.39.69-.48,1.34-1.03,1.96-1.64,2.8-2.8,4.21-6.48,4.21-10.16s-1.39-7.32-4.17-10.12l23.33-23.33Z"/>
      <g>
        <g>
          <path class="cls-11" d="M5006.81,2358.34l-20.31,20.31s-.08-.08-.12-.12c-2.8-2.8-4.21-6.48-4.21-10.16,0-3.68,1.4-7.35,4.21-10.16.61-.61,1.27-1.16,1.96-1.64.2-.14.4-.27.6-.39,2.32-1.45,4.96-2.17,7.6-2.17,3.68,0,7.35,1.4,10.16,4.21.04.04.08.08.12.12Z"/>
          <path class="cls-11" d="M4996.53,2343.83c-6.28,0-12.56,2.4-17.35,7.19-4.79,4.79-7.19,11.07-7.19,17.35h-8.81c0-8.53,3.26-17.07,9.77-23.58,6.51-6.51,15.05-9.77,23.58-9.77v8.81Z"/>
          <path class="cls-11" d="M4996.53,2324.43c-11.25,0-22.49,4.29-31.07,12.87-8.58,8.58-12.87,19.83-12.87,31.07h-8.81c0-13.5,5.15-27,15.45-37.3,10.3-10.3,23.8-15.45,37.3-15.45v8.81Z"/>
        </g>
        <path class="cls-11" d="M5006.97,2358.49l-20.31,20.31s-.03-.02-.04-.04c-.04-.04-.08-.08-.12-.12l20.31-20.31s.08.08.12.12c.01.01.03.03.04.04Z"/>
      </g>
    </g>
    <g>
      <path class="cls-11" d="M5064.68,2402.7v-56.31h-19.81v-11.65h52.43v11.65h-19.81v56.31h-12.82Z"/>
      <path class="cls-11" d="M5102.64,2404.06c-3.43,0-6.51-.6-9.22-1.8-2.72-1.2-4.87-2.94-6.46-5.24-1.59-2.3-2.38-5.1-2.38-8.4s.79-6.07,2.38-8.3c1.59-2.23,3.79-3.92,6.6-5.05,2.82-1.13,6.03-1.7,9.66-1.7h13.2v-2.72c0-2.26-.71-4.13-2.14-5.58-1.42-1.46-3.69-2.18-6.8-2.18s-5.31.7-6.8,2.09c-1.49,1.39-2.46,3.19-2.91,5.39l-11.26-3.79c.78-2.46,2.02-4.71,3.74-6.75,1.71-2.04,4.01-3.69,6.89-4.95,2.88-1.26,6.39-1.89,10.53-1.89,6.34,0,11.36,1.59,15.05,4.76,3.69,3.17,5.53,7.77,5.53,13.79v17.96c0,1.94.91,2.91,2.72,2.91h3.88v10.1h-8.16c-2.4,0-4.37-.58-5.92-1.75-1.55-1.17-2.33-2.72-2.33-4.66v-.1h-1.84c-.26.78-.84,1.8-1.75,3.06-.91,1.26-2.33,2.38-4.27,3.35-1.94.97-4.6,1.46-7.96,1.46ZM5104.77,2394.15c3.43,0,6.23-.95,8.4-2.86,2.17-1.91,3.25-4.45,3.25-7.62v-.97h-12.33c-2.27,0-4.05.49-5.34,1.46-1.3.97-1.94,2.33-1.94,4.08s.68,3.17,2.04,4.27c1.36,1.1,3.33,1.65,5.92,1.65Z"/>
      <path class="cls-11" d="M5135.65,2378.81v-1.55c0-5.05,1-9.37,3.01-12.96,2.01-3.59,4.68-6.34,8.01-8.25,3.33-1.91,6.97-2.86,10.92-2.86,4.4,0,7.73.78,10,2.33,2.26,1.55,3.92,3.17,4.95,4.85h1.75v-5.83h12.04v56.7c0,3.3-.97,5.94-2.91,7.91-1.94,1.97-4.53,2.96-7.77,2.96h-32.24v-10.68h27.96c1.81,0,2.72-.97,2.72-2.91v-12.52h-1.75c-.65,1.04-1.55,2.09-2.72,3.16-1.16,1.07-2.72,1.96-4.66,2.67-1.94.71-4.4,1.07-7.38,1.07-3.95,0-7.59-.95-10.92-2.86-3.33-1.91-6-4.66-8.01-8.25-2.01-3.59-3.01-7.91-3.01-12.96ZM5161.09,2392.21c3.75,0,6.89-1.2,9.42-3.59,2.52-2.39,3.79-5.76,3.79-10.1v-.97c0-4.4-1.25-7.78-3.74-10.15-2.49-2.36-5.65-3.54-9.47-3.54s-6.89,1.18-9.42,3.54c-2.52,2.36-3.79,5.75-3.79,10.15v.97c0,4.34,1.26,7.7,3.79,10.1,2.52,2.4,5.66,3.59,9.42,3.59Z"/>
      <path class="cls-11" d="M5193.81,2402.7v-67.97h43.69v11.65h-30.88v16.21h28.16v11.65h-28.16v16.8h31.46v11.65h-44.27Z"/>
      <path class="cls-11" d="M5259.44,2404.06c-3.43,0-6.51-.6-9.22-1.8-2.72-1.2-4.87-2.94-6.46-5.24-1.59-2.3-2.38-5.1-2.38-8.4s.79-6.07,2.38-8.3c1.59-2.23,3.79-3.92,6.6-5.05,2.82-1.13,6.03-1.7,9.66-1.7h13.2v-2.72c0-2.26-.71-4.13-2.14-5.58-1.42-1.46-3.69-2.18-6.8-2.18s-5.31.7-6.8,2.09c-1.49,1.39-2.46,3.19-2.91,5.39l-11.26-3.79c.78-2.46,2.02-4.71,3.74-6.75,1.71-2.04,4.01-3.69,6.89-4.95,2.88-1.26,6.39-1.89,10.53-1.89,6.34,0,11.36,1.59,15.05,4.76,3.69,3.17,5.53,7.77,5.53,13.79v17.96c0,1.94.91,2.91,2.72,2.91h3.88v10.1h-8.16c-2.4,0-4.37-.58-5.92-1.75-1.55-1.17-2.33-2.72-2.33-4.66v-.1h-1.84c-.26.78-.84,1.8-1.75,3.06-.91,1.26-2.33,2.38-4.27,3.35-1.94.97-4.6,1.46-7.96,1.46ZM5261.58,2394.15c3.43,0,6.23-.95,8.4-2.86,2.17-1.91,3.25-4.45,3.25-7.62v-.97h-12.33c-2.27,0-4.05.49-5.34,1.46-1.3.97-1.94,2.33-1.94,4.08s.68,3.17,2.04,4.27c1.36,1.1,3.33,1.65,5.92,1.65Z"/>
      <path class="cls-11" d="M5315.37,2404.06c-6.28,0-11.43-1.36-15.44-4.08-4.01-2.72-6.44-6.6-7.28-11.65l11.26-2.91c.45,2.27,1.21,4.05,2.28,5.34,1.07,1.3,2.39,2.22,3.98,2.77,1.59.55,3.32.82,5.19.82,2.85,0,4.95-.5,6.31-1.5,1.36-1,2.04-2.25,2.04-3.74s-.65-2.64-1.94-3.45c-1.3-.81-3.37-1.47-6.21-1.99l-2.72-.49c-3.37-.65-6.44-1.54-9.22-2.67-2.78-1.13-5.02-2.7-6.7-4.71-1.68-2.01-2.52-4.6-2.52-7.77,0-4.79,1.75-8.46,5.24-11.02,3.5-2.56,8.09-3.83,13.79-3.83,5.37,0,9.84,1.2,13.4,3.59,3.56,2.4,5.89,5.53,6.99,9.42l-11.36,3.5c-.52-2.46-1.57-4.21-3.16-5.24-1.59-1.03-3.54-1.55-5.87-1.55s-4.11.41-5.34,1.21c-1.23.81-1.84,1.93-1.84,3.35,0,1.55.65,2.7,1.94,3.45,1.29.75,3.04,1.31,5.24,1.7l2.72.49c3.62.65,6.91,1.51,9.86,2.57,2.94,1.07,5.27,2.59,6.99,4.56,1.71,1.98,2.57,4.65,2.57,8.01,0,5.05-1.83,8.95-5.49,11.7-3.66,2.75-8.56,4.13-14.71,4.13Z"/>
      <path class="cls-11" d="M5363.91,2404.06c-4.79,0-9.01-1.02-12.67-3.06-3.66-2.04-6.51-4.92-8.54-8.64-2.04-3.72-3.06-8.11-3.06-13.16v-1.17c0-5.05,1-9.43,3.01-13.16,2.01-3.72,4.82-6.6,8.45-8.64,3.62-2.04,7.83-3.06,12.62-3.06s8.84,1.05,12.33,3.16c3.5,2.1,6.21,5.02,8.16,8.74,1.94,3.72,2.91,8.04,2.91,12.96v4.18h-35.05c.13,3.3,1.36,5.99,3.69,8.06,2.33,2.07,5.18,3.11,8.54,3.11s5.95-.74,7.57-2.23c1.62-1.49,2.85-3.14,3.69-4.95l10,5.24c-.91,1.68-2.22,3.51-3.93,5.49-1.72,1.98-4,3.66-6.85,5.05-2.85,1.39-6.47,2.09-10.87,2.09ZM5352.16,2373.08h22.53c-.26-2.78-1.38-5.02-3.35-6.7-1.98-1.68-4.55-2.52-7.72-2.52s-5.92.84-7.86,2.52c-1.94,1.68-3.14,3.92-3.59,6.7Z"/>
    </g>
  </g>
  <g>
    <g>
      <path class="cls-10" d="M5012.83,1765.68v67.54h-67.54l23.89-23.89c2.8,2.78,6.46,4.17,10.12,4.17,2.64,0,5.28-.73,7.6-2.17.2-.13.4-.26.59-.39.69-.48,1.34-1.03,1.96-1.64,2.8-2.8,4.21-6.48,4.21-10.16s-1.39-7.32-4.17-10.12l23.33-23.33Z"/>
      <g>
        <g>
          <path class="cls-10" d="M4989.34,1788.85l-20.31,20.31s-.08-.08-.12-.12c-2.8-2.8-4.21-6.48-4.21-10.16,0-3.68,1.4-7.35,4.21-10.16.61-.61,1.27-1.16,1.96-1.64.2-.14.4-.27.6-.39,2.32-1.45,4.96-2.17,7.6-2.17,3.68,0,7.35,1.4,10.16,4.21.04.04.08.08.12.12Z"/>
          <path class="cls-10" d="M4979.06,1774.35c-6.28,0-12.56,2.4-17.35,7.19-4.79,4.79-7.19,11.07-7.19,17.35h-8.81c0-8.53,3.26-17.07,9.77-23.58,6.51-6.51,15.05-9.77,23.58-9.77v8.81Z"/>
          <path class="cls-10" d="M4979.06,1754.95c-11.25,0-22.49,4.29-31.07,12.87-8.58,8.58-12.87,19.83-12.87,31.07h-8.81c0-13.5,5.15-27,15.45-37.3,10.3-10.3,23.8-15.45,37.3-15.45v8.81Z"/>
        </g>
        <path class="cls-10" d="M4989.5,1789.01l-20.31,20.31s-.03-.02-.04-.04c-.04-.04-.08-.08-.12-.12l20.31-20.31s.08.08.12.12c.01.01.03.03.04.04Z"/>
      </g>
    </g>
    <g>
      <path class="cls-15" d="M5047.21,1833.21v-56.31h-19.81v-11.65h52.43v11.65h-19.81v56.31h-12.82Z"/>
      <path class="cls-15" d="M5085.17,1834.57c-3.43,0-6.51-.6-9.22-1.8-2.72-1.2-4.87-2.94-6.46-5.24-1.59-2.3-2.38-5.1-2.38-8.4s.79-6.07,2.38-8.3c1.59-2.23,3.79-3.92,6.6-5.05,2.82-1.13,6.03-1.7,9.66-1.7h13.2v-2.72c0-2.26-.71-4.13-2.14-5.58-1.42-1.46-3.69-2.18-6.8-2.18s-5.31.7-6.8,2.09c-1.49,1.39-2.46,3.19-2.91,5.39l-11.26-3.79c.78-2.46,2.02-4.71,3.74-6.75,1.71-2.04,4.01-3.69,6.89-4.95,2.88-1.26,6.39-1.89,10.53-1.89,6.34,0,11.36,1.59,15.05,4.76,3.69,3.17,5.53,7.77,5.53,13.79v17.96c0,1.94.91,2.91,2.72,2.91h3.88v10.1h-8.16c-2.4,0-4.37-.58-5.92-1.75-1.55-1.17-2.33-2.72-2.33-4.66v-.1h-1.84c-.26.78-.84,1.8-1.75,3.06-.91,1.26-2.33,2.38-4.27,3.35s-4.6,1.46-7.96,1.46ZM5087.31,1824.67c3.43,0,6.23-.95,8.4-2.86,2.17-1.91,3.25-4.45,3.25-7.62v-.97h-12.33c-2.27,0-4.05.49-5.34,1.46-1.3.97-1.94,2.33-1.94,4.08s.68,3.17,2.04,4.27c1.36,1.1,3.33,1.65,5.92,1.65Z"/>
      <path class="cls-15" d="M5118.18,1809.33v-1.55c0-5.05,1-9.37,3.01-12.96,2.01-3.59,4.68-6.34,8.01-8.25,3.33-1.91,6.97-2.86,10.92-2.86,4.4,0,7.73.78,10,2.33,2.26,1.55,3.92,3.17,4.95,4.85h1.75v-5.83h12.04v56.7c0,3.3-.97,5.94-2.91,7.91-1.94,1.97-4.53,2.96-7.77,2.96h-32.24v-10.68h27.96c1.81,0,2.72-.97,2.72-2.91v-12.52h-1.75c-.65,1.04-1.55,2.09-2.72,3.16-1.16,1.07-2.72,1.96-4.66,2.67-1.94.71-4.4,1.07-7.38,1.07-3.95,0-7.59-.95-10.92-2.86-3.33-1.91-6-4.66-8.01-8.25-2.01-3.59-3.01-7.91-3.01-12.96ZM5143.62,1822.73c3.75,0,6.89-1.2,9.42-3.59,2.52-2.39,3.79-5.76,3.79-10.1v-.97c0-4.4-1.25-7.78-3.74-10.15-2.49-2.36-5.65-3.54-9.47-3.54s-6.89,1.18-9.42,3.54c-2.52,2.36-3.79,5.75-3.79,10.15v.97c0,4.34,1.26,7.7,3.79,10.1,2.52,2.4,5.66,3.59,9.42,3.59Z"/>
      <path class="cls-15" d="M5176.34,1833.21v-67.97h43.69v11.65h-30.88v16.21h28.16v11.65h-28.16v16.8h31.46v11.65h-44.27Z"/>
      <path class="cls-15" d="M5241.97,1834.57c-3.43,0-6.51-.6-9.22-1.8-2.72-1.2-4.87-2.94-6.46-5.24-1.59-2.3-2.38-5.1-2.38-8.4s.79-6.07,2.38-8.3c1.59-2.23,3.79-3.92,6.6-5.05,2.82-1.13,6.03-1.7,9.66-1.7h13.2v-2.72c0-2.26-.71-4.13-2.14-5.58-1.42-1.46-3.69-2.18-6.8-2.18s-5.31.7-6.8,2.09c-1.49,1.39-2.46,3.19-2.91,5.39l-11.26-3.79c.78-2.46,2.02-4.71,3.74-6.75,1.71-2.04,4.01-3.69,6.89-4.95,2.88-1.26,6.39-1.89,10.53-1.89,6.34,0,11.36,1.59,15.05,4.76,3.69,3.17,5.53,7.77,5.53,13.79v17.96c0,1.94.91,2.91,2.72,2.91h3.88v10.1h-8.16c-2.4,0-4.37-.58-5.92-1.75-1.55-1.17-2.33-2.72-2.33-4.66v-.1h-1.84c-.26.78-.84,1.8-1.75,3.06-.91,1.26-2.33,2.38-4.27,3.35-1.94.97-4.6,1.46-7.96,1.46ZM5244.11,1824.67c3.43,0,6.23-.95,8.4-2.86,2.17-1.91,3.25-4.45,3.25-7.62v-.97h-12.33c-2.27,0-4.05.49-5.34,1.46-1.3.97-1.94,2.33-1.94,4.08s.68,3.17,2.04,4.27c1.36,1.1,3.33,1.65,5.92,1.65Z"/>
      <path class="cls-15" d="M5297.9,1834.57c-6.28,0-11.43-1.36-15.44-4.08-4.01-2.72-6.44-6.6-7.28-11.65l11.26-2.91c.45,2.27,1.21,4.05,2.28,5.34,1.07,1.3,2.39,2.22,3.98,2.77,1.59.55,3.32.82,5.19.82,2.85,0,4.95-.5,6.31-1.5,1.36-1,2.04-2.25,2.04-3.74s-.65-2.64-1.94-3.45c-1.3-.81-3.37-1.47-6.21-1.99l-2.72-.49c-3.37-.65-6.44-1.54-9.22-2.67-2.78-1.13-5.02-2.7-6.7-4.71-1.68-2.01-2.52-4.6-2.52-7.77,0-4.79,1.75-8.46,5.24-11.02,3.5-2.56,8.09-3.83,13.79-3.83,5.37,0,9.84,1.2,13.4,3.59,3.56,2.4,5.89,5.53,6.99,9.42l-11.36,3.5c-.52-2.46-1.57-4.21-3.16-5.24-1.59-1.03-3.54-1.55-5.87-1.55s-4.11.41-5.34,1.21c-1.23.81-1.84,1.93-1.84,3.35,0,1.55.65,2.7,1.94,3.45,1.29.75,3.04,1.31,5.24,1.7l2.72.49c3.62.65,6.91,1.51,9.86,2.57,2.94,1.07,5.27,2.59,6.99,4.56,1.71,1.98,2.57,4.65,2.57,8.01,0,5.05-1.83,8.95-5.49,11.7-3.66,2.75-8.56,4.13-14.71,4.13Z"/>
      <path class="cls-15" d="M5346.44,1834.57c-4.79,0-9.01-1.02-12.67-3.06-3.66-2.04-6.51-4.92-8.54-8.64-2.04-3.72-3.06-8.11-3.06-13.16v-1.17c0-5.05,1-9.43,3.01-13.16,2.01-3.72,4.82-6.6,8.45-8.64,3.62-2.04,7.83-3.06,12.62-3.06s8.84,1.05,12.33,3.16c3.5,2.1,6.21,5.02,8.16,8.74,1.94,3.72,2.91,8.04,2.91,12.96v4.18h-35.05c.13,3.3,1.36,5.99,3.69,8.06,2.33,2.07,5.18,3.11,8.54,3.11s5.95-.74,7.57-2.23c1.62-1.49,2.85-3.14,3.69-4.95l10,5.24c-.91,1.68-2.22,3.51-3.93,5.49-1.72,1.98-4,3.66-6.85,5.05-2.85,1.39-6.47,2.09-10.87,2.09ZM5334.7,1803.6h22.53c-.26-2.78-1.38-5.02-3.35-6.7-1.98-1.68-4.55-2.52-7.72-2.52s-5.92.84-7.86,2.52c-1.94,1.68-3.14,3.92-3.59,6.7Z"/>
    </g>
  </g>
  <g>
    <g>
      <path class="cls-10" d="M4018.84,2317.99v67.54h-67.54l23.89-23.89c2.8,2.78,6.46,4.17,10.12,4.17,2.64,0,5.28-.73,7.6-2.17.2-.13.4-.26.59-.39.69-.48,1.34-1.03,1.96-1.64,2.8-2.8,4.21-6.48,4.21-10.16s-1.39-7.32-4.17-10.12l23.33-23.33Z"/>
      <g>
        <g>
          <path class="cls-10" d="M3995.34,2341.17l-20.31,20.31s-.08-.08-.12-.12c-2.8-2.8-4.21-6.48-4.21-10.16,0-3.68,1.4-7.35,4.21-10.16.61-.61,1.27-1.16,1.96-1.64.2-.14.4-.27.6-.39,2.32-1.45,4.96-2.17,7.6-2.17,3.68,0,7.35,1.4,10.16,4.21.04.04.08.08.12.12Z"/>
          <path class="cls-10" d="M3985.07,2326.66c-6.28,0-12.56,2.4-17.35,7.19-4.79,4.79-7.19,11.07-7.19,17.35h-8.81c0-8.53,3.26-17.07,9.77-23.58,6.51-6.51,15.05-9.77,23.58-9.77v8.81Z"/>
          <path class="cls-10" d="M3985.07,2307.26c-11.25,0-22.49,4.29-31.07,12.87-8.58,8.58-12.87,19.83-12.87,31.07h-8.81c0-13.5,5.15-27,15.45-37.3,10.3-10.3,23.8-15.45,37.3-15.45v8.81Z"/>
        </g>
        <path class="cls-10" d="M3995.5,2341.32l-20.31,20.31s-.03-.02-.04-.04c-.04-.04-.08-.08-.12-.12l20.31-20.31s.08.08.12.12c.01.01.03.03.04.04Z"/>
      </g>
    </g>
    <g>
      <path class="cls-10" d="M4053.21,2385.53v-56.31h-19.81v-11.65h52.43v11.65h-19.81v56.31h-12.82Z"/>
      <path class="cls-10" d="M4091.18,2386.89c-3.43,0-6.51-.6-9.22-1.8-2.72-1.2-4.87-2.94-6.46-5.24-1.59-2.3-2.38-5.1-2.38-8.4s.79-6.07,2.38-8.3c1.59-2.23,3.79-3.92,6.6-5.05,2.82-1.13,6.03-1.7,9.66-1.7h13.2v-2.72c0-2.26-.71-4.13-2.14-5.58-1.42-1.46-3.69-2.18-6.8-2.18s-5.31.7-6.8,2.09c-1.49,1.39-2.46,3.19-2.91,5.39l-11.26-3.79c.78-2.46,2.02-4.71,3.74-6.75,1.71-2.04,4.01-3.69,6.89-4.95,2.88-1.26,6.39-1.89,10.53-1.89,6.34,0,11.36,1.59,15.05,4.76,3.69,3.17,5.53,7.77,5.53,13.79v17.96c0,1.94.91,2.91,2.72,2.91h3.88v10.1h-8.16c-2.4,0-4.37-.58-5.92-1.75-1.55-1.17-2.33-2.72-2.33-4.66v-.1h-1.84c-.26.78-.84,1.8-1.75,3.06-.91,1.26-2.33,2.38-4.27,3.35-1.94.97-4.6,1.46-7.96,1.46ZM4093.31,2376.98c3.43,0,6.23-.95,8.4-2.86,2.17-1.91,3.25-4.45,3.25-7.62v-.97h-12.33c-2.27,0-4.05.49-5.34,1.46-1.3.97-1.94,2.33-1.94,4.08s.68,3.17,2.04,4.27c1.36,1.1,3.33,1.65,5.92,1.65Z"/>
      <path class="cls-10" d="M4124.19,2361.64v-1.55c0-5.05,1-9.37,3.01-12.96,2.01-3.59,4.68-6.34,8.01-8.25,3.33-1.91,6.97-2.86,10.92-2.86,4.4,0,7.73.78,10,2.33,2.26,1.55,3.92,3.17,4.95,4.85h1.75v-5.83h12.04v56.7c0,3.3-.97,5.94-2.91,7.91-1.94,1.97-4.53,2.96-7.77,2.96h-32.24v-10.68h27.96c1.81,0,2.72-.97,2.72-2.91v-12.52h-1.75c-.65,1.04-1.55,2.09-2.72,3.16-1.16,1.07-2.72,1.96-4.66,2.67-1.94.71-4.4,1.07-7.38,1.07-3.95,0-7.59-.95-10.92-2.86-3.33-1.91-6-4.66-8.01-8.25-2.01-3.59-3.01-7.91-3.01-12.96ZM4149.62,2375.04c3.75,0,6.89-1.2,9.42-3.59,2.52-2.39,3.79-5.76,3.79-10.1v-.97c0-4.4-1.25-7.78-3.74-10.15-2.49-2.36-5.65-3.54-9.47-3.54s-6.89,1.18-9.42,3.54c-2.52,2.36-3.79,5.75-3.79,10.15v.97c0,4.34,1.26,7.7,3.79,10.1,2.52,2.4,5.66,3.59,9.42,3.59Z"/>
      <path class="cls-10" d="M4182.34,2385.53v-67.97h43.69v11.65h-30.88v16.21h28.16v11.65h-28.16v16.8h31.46v11.65h-44.27Z"/>
      <path class="cls-10" d="M4247.98,2386.89c-3.43,0-6.51-.6-9.22-1.8-2.72-1.2-4.87-2.94-6.46-5.24-1.59-2.3-2.38-5.1-2.38-8.4s.79-6.07,2.38-8.3c1.59-2.23,3.79-3.92,6.6-5.05,2.82-1.13,6.03-1.7,9.66-1.7h13.2v-2.72c0-2.26-.71-4.13-2.14-5.58-1.42-1.46-3.69-2.18-6.8-2.18s-5.31.7-6.8,2.09c-1.49,1.39-2.46,3.19-2.91,5.39l-11.26-3.79c.78-2.46,2.02-4.71,3.74-6.75,1.71-2.04,4.01-3.69,6.89-4.95,2.88-1.26,6.39-1.89,10.53-1.89,6.34,0,11.36,1.59,15.05,4.76,3.69,3.17,5.53,7.77,5.53,13.79v17.96c0,1.94.91,2.91,2.72,2.91h3.88v10.1h-8.16c-2.4,0-4.37-.58-5.92-1.75-1.55-1.17-2.33-2.72-2.33-4.66v-.1h-1.84c-.26.78-.84,1.8-1.75,3.06-.91,1.26-2.33,2.38-4.27,3.35s-4.6,1.46-7.96,1.46ZM4250.11,2376.98c3.43,0,6.23-.95,8.4-2.86,2.17-1.91,3.25-4.45,3.25-7.62v-.97h-12.33c-2.27,0-4.05.49-5.34,1.46-1.3.97-1.94,2.33-1.94,4.08s.68,3.17,2.04,4.27c1.36,1.1,3.33,1.65,5.92,1.65Z"/>
      <path class="cls-10" d="M4303.9,2386.89c-6.28,0-11.43-1.36-15.44-4.08-4.01-2.72-6.44-6.6-7.28-11.65l11.26-2.91c.45,2.27,1.21,4.05,2.28,5.34,1.07,1.3,2.39,2.22,3.98,2.77,1.59.55,3.32.82,5.19.82,2.85,0,4.95-.5,6.31-1.5,1.36-1,2.04-2.25,2.04-3.74s-.65-2.64-1.94-3.45c-1.3-.81-3.37-1.47-6.21-1.99l-2.72-.49c-3.37-.65-6.44-1.54-9.22-2.67-2.78-1.13-5.02-2.7-6.7-4.71-1.68-2.01-2.52-4.6-2.52-7.77,0-4.79,1.75-8.46,5.24-11.02,3.5-2.56,8.09-3.83,13.79-3.83,5.37,0,9.84,1.2,13.4,3.59,3.56,2.4,5.89,5.53,6.99,9.42l-11.36,3.5c-.52-2.46-1.57-4.21-3.16-5.24-1.59-1.03-3.54-1.55-5.87-1.55s-4.11.41-5.34,1.21c-1.23.81-1.84,1.93-1.84,3.35,0,1.55.65,2.7,1.94,3.45,1.29.75,3.04,1.31,5.24,1.7l2.72.49c3.62.65,6.91,1.51,9.86,2.57,2.94,1.07,5.27,2.59,6.99,4.56,1.71,1.98,2.57,4.65,2.57,8.01,0,5.05-1.83,8.95-5.49,11.7-3.66,2.75-8.56,4.13-14.71,4.13Z"/>
      <path class="cls-10" d="M4352.45,2386.89c-4.79,0-9.01-1.02-12.67-3.06-3.66-2.04-6.51-4.92-8.54-8.64-2.04-3.72-3.06-8.11-3.06-13.16v-1.17c0-5.05,1-9.43,3.01-13.16,2.01-3.72,4.82-6.6,8.45-8.64,3.62-2.04,7.83-3.06,12.62-3.06s8.84,1.05,12.33,3.16c3.5,2.1,6.21,5.02,8.16,8.74,1.94,3.72,2.91,8.04,2.91,12.96v4.18h-35.05c.13,3.3,1.36,5.99,3.69,8.06,2.33,2.07,5.18,3.11,8.54,3.11s5.95-.74,7.57-2.23c1.62-1.49,2.85-3.14,3.69-4.95l10,5.24c-.91,1.68-2.22,3.51-3.93,5.49-1.72,1.98-4,3.66-6.85,5.05-2.85,1.39-6.47,2.09-10.87,2.09ZM4340.7,2355.91h22.53c-.26-2.78-1.38-5.02-3.35-6.7-1.98-1.68-4.55-2.52-7.72-2.52s-5.92.84-7.86,2.52c-1.94,1.68-3.14,3.92-3.59,6.7Z"/>
    </g>
  </g>
  <g>
    <g>
      <path class="cls-10" d="M2331.71,3134.86v167.52h-167.52l59.26-59.26c6.95,6.9,16.02,10.35,25.1,10.35,6.55,0,13.11-1.8,18.86-5.39.5-.31.99-.64,1.47-.98,1.71-1.19,3.34-2.55,4.86-4.07,6.95-6.95,10.43-16.07,10.43-25.19s-3.45-18.15-10.34-25.1l57.88-57.88Z"/>
      <g>
        <g>
          <path class="cls-10" d="M2273.43,3192.35l-50.38,50.38c-.1-.1-.2-.2-.3-.3-6.96-6.96-10.44-16.08-10.44-25.19,0-9.12,3.48-18.24,10.44-25.19,1.52-1.52,3.15-2.88,4.85-4.07.49-.34.98-.67,1.48-.98,5.75-3.59,12.31-5.39,18.86-5.39,9.12,0,18.24,3.48,25.19,10.44.1.1.2.2.3.3Z"/>
          <path class="cls-10" d="M2247.95,3156.38c-15.58,0-31.15,5.94-43.04,17.83-11.88,11.88-17.83,27.46-17.83,43.04h-21.85c0-21.17,8.08-42.34,24.23-58.49,16.15-16.15,37.32-24.23,58.49-24.23v21.85Z"/>
          <path class="cls-10" d="M2247.94,3108.25c-27.89,0-55.79,10.64-77.07,31.93-21.28,21.28-31.92,49.18-31.92,77.07h-21.85c0-33.48,12.77-66.97,38.32-92.52,25.55-25.55,59.04-38.33,92.52-38.33v21.85Z"/>
        </g>
        <path class="cls-10" d="M2273.83,3192.74l-50.38,50.38s-.07-.06-.1-.09c-.1-.1-.2-.2-.29-.3l50.38-50.38c.1.1.2.2.3.29.03.03.07.07.09.1Z"/>
      </g>
    </g>
    <g>
      <path class="cls-15" d="M2416.97,3302.39v-139.68h-49.13v-28.9h130.05v28.9h-49.13v139.68h-31.79Z"/>
      <path class="cls-15" d="M2511.14,3305.76c-8.51,0-16.14-1.49-22.88-4.46-6.74-2.97-12.08-7.3-16.02-13.01-3.94-5.7-5.9-12.64-5.9-20.83s1.96-15.05,5.9-20.59c3.93-5.54,9.39-9.71,16.38-12.52,6.98-2.81,14.97-4.21,23.96-4.21h32.75v-6.74c0-5.62-1.77-10.24-5.3-13.85-3.53-3.61-9.15-5.42-16.86-5.42s-13.17,1.73-16.86,5.18c-3.7,3.45-6.1,7.91-7.23,13.37l-27.94-9.39c1.93-6.1,5.02-11.68,9.27-16.74,4.25-5.06,9.95-9.15,17.1-12.28,7.14-3.13,15.85-4.7,26.13-4.7,15.73,0,28.18,3.94,37.33,11.8,9.15,7.87,13.73,19.27,13.73,34.2v44.55c0,4.82,2.25,7.23,6.74,7.23h9.63v25.05h-20.23c-5.94,0-10.84-1.45-14.69-4.34-3.85-2.89-5.78-6.74-5.78-11.56v-.24h-4.58c-.64,1.93-2.09,4.46-4.34,7.59-2.25,3.13-5.78,5.9-10.6,8.31-4.82,2.41-11.4,3.61-19.75,3.61ZM2516.44,3281.19c8.51,0,15.45-2.37,20.83-7.1,5.38-4.73,8.07-11.04,8.07-18.91v-2.41h-30.59c-5.62,0-10.04,1.2-13.25,3.61-3.21,2.41-4.82,5.78-4.82,10.12s1.69,7.87,5.06,10.6c3.37,2.73,8.27,4.09,14.69,4.09Z"/>
      <path class="cls-15" d="M2593.02,3243.14v-3.85c0-12.52,2.49-23.24,7.47-32.15,4.97-8.91,11.6-15.73,19.87-20.47,8.27-4.73,17.3-7.1,27.09-7.1,10.92,0,19.18,1.93,24.81,5.78,5.62,3.85,9.71,7.87,12.28,12.04h4.34v-14.45h29.86v140.65c0,8.19-2.41,14.73-7.23,19.63-4.82,4.9-11.24,7.35-19.27,7.35h-79.96v-26.49h69.36c4.49,0,6.74-2.41,6.74-7.23v-31.07h-4.34c-1.61,2.57-3.85,5.18-6.74,7.83-2.89,2.65-6.74,4.86-11.56,6.62-4.82,1.77-10.92,2.65-18.3,2.65-9.8,0-18.83-2.37-27.09-7.1-8.27-4.73-14.89-11.56-19.87-20.47-4.98-8.91-7.47-19.63-7.47-32.15ZM2656.12,3276.38c9.31,0,17.1-2.97,23.36-8.91,6.26-5.94,9.39-14.29,9.39-25.05v-2.41c0-10.92-3.09-19.3-9.27-25.17-6.18-5.86-14.01-8.79-23.48-8.79s-17.1,2.93-23.36,8.79c-6.26,5.86-9.39,14.25-9.39,25.17v2.41c0,10.76,3.13,19.11,9.39,25.05,6.26,5.94,14.05,8.91,23.36,8.91Z"/>
      <path class="cls-15" d="M2737.28,3302.39v-168.58h108.38v28.9h-76.59v40.22h69.84v28.9h-69.84v41.66h78.03v28.9h-109.82Z"/>
      <path class="cls-15" d="M2900.08,3305.76c-8.51,0-16.14-1.49-22.88-4.46-6.74-2.97-12.08-7.3-16.02-13.01-3.94-5.7-5.9-12.64-5.9-20.83s1.96-15.05,5.9-20.59c3.93-5.54,9.39-9.71,16.38-12.52,6.98-2.81,14.97-4.21,23.96-4.21h32.75v-6.74c0-5.62-1.77-10.24-5.3-13.85-3.53-3.61-9.15-5.42-16.86-5.42s-13.17,1.73-16.86,5.18c-3.7,3.45-6.1,7.91-7.23,13.37l-27.94-9.39c1.93-6.1,5.02-11.68,9.27-16.74,4.25-5.06,9.95-9.15,17.1-12.28,7.14-3.13,15.85-4.7,26.13-4.7,15.73,0,28.18,3.94,37.33,11.8,9.15,7.87,13.73,19.27,13.73,34.2v44.55c0,4.82,2.25,7.23,6.74,7.23h9.63v25.05h-20.23c-5.94,0-10.84-1.45-14.69-4.34-3.85-2.89-5.78-6.74-5.78-11.56v-.24h-4.58c-.64,1.93-2.09,4.46-4.34,7.59-2.25,3.13-5.78,5.9-10.6,8.31-4.82,2.41-11.4,3.61-19.75,3.61ZM2905.38,3281.19c8.51,0,15.45-2.37,20.83-7.1,5.38-4.73,8.07-11.04,8.07-18.91v-2.41h-30.59c-5.62,0-10.04,1.2-13.25,3.61-3.21,2.41-4.82,5.78-4.82,10.12s1.69,7.87,5.06,10.6c3.37,2.73,8.27,4.09,14.69,4.09Z"/>
      <path class="cls-15" d="M3038.8,3305.76c-15.58,0-28.34-3.37-38.29-10.12-9.96-6.74-15.98-16.38-18.06-28.9l27.94-7.23c1.12,5.62,3.01,10.04,5.66,13.25,2.65,3.21,5.94,5.5,9.87,6.86,3.93,1.37,8.23,2.05,12.88,2.05,7.06,0,12.28-1.24,15.65-3.73,3.37-2.49,5.06-5.58,5.06-9.27s-1.61-6.54-4.82-8.55c-3.21-2.01-8.35-3.65-15.41-4.94l-6.74-1.2c-8.35-1.6-15.98-3.81-22.88-6.62-6.91-2.81-12.44-6.7-16.62-11.68-4.18-4.97-6.26-11.4-6.26-19.27,0-11.88,4.34-20.99,13.01-27.33,8.67-6.34,20.07-9.51,34.2-9.51,13.32,0,24.4,2.97,33.23,8.91,8.83,5.94,14.61,13.73,17.34,23.36l-28.18,8.67c-1.29-6.1-3.89-10.44-7.83-13.01-3.94-2.57-8.79-3.85-14.57-3.85s-10.2,1-13.25,3.01c-3.05,2.01-4.58,4.78-4.58,8.31,0,3.85,1.6,6.71,4.82,8.55,3.21,1.85,7.54,3.25,13.01,4.21l6.74,1.2c8.99,1.61,17.14,3.73,24.44,6.38,7.3,2.65,13.08,6.42,17.34,11.32,4.25,4.9,6.38,11.52,6.38,19.87,0,12.52-4.54,22.2-13.61,29.02-9.07,6.83-21.23,10.24-36.49,10.24Z"/>
      <path class="cls-15" d="M3159.21,3305.76c-11.88,0-22.36-2.53-31.43-7.59-9.07-5.06-16.14-12.2-21.19-21.43-5.06-9.23-7.59-20.11-7.59-32.63v-2.89c0-12.52,2.49-23.4,7.47-32.63,4.97-9.23,11.96-16.38,20.95-21.43,8.99-5.06,19.42-7.59,31.31-7.59s21.92,2.61,30.59,7.83c8.67,5.22,15.41,12.45,20.23,21.68,4.82,9.23,7.23,19.95,7.23,32.15v10.36h-86.94c.32,8.19,3.37,14.85,9.15,19.99,5.78,5.14,12.84,7.71,21.19,7.71s14.77-1.84,18.79-5.54c4.01-3.69,7.06-7.79,9.15-12.28l24.81,13.01c-2.25,4.18-5.5,8.71-9.75,13.61-4.26,4.9-9.92,9.07-16.98,12.52-7.07,3.45-16.06,5.18-26.97,5.18ZM3130.07,3228.93h55.87c-.64-6.9-3.41-12.44-8.31-16.62-4.9-4.17-11.28-6.26-19.15-6.26s-14.69,2.09-19.51,6.26c-4.82,4.18-7.79,9.72-8.91,16.62Z"/>
    </g>
  </g>
  <rect class="cls-10" x="3838.35" y="2777.64" width="1107.01" height="356.16"/>
  <rect class="cls-8" x="5048.77" y="2777.64" width="487.96" height="356.16"/>
  <rect class="cls-7" x="3838.35" y="3192.35" width="346.69" height="356.16"/>
  <rect x="4268.77" y="3192.35" width="346.69" height="356.16"/>
  <text class="cls-12" transform="translate(4242.7 797.36)"><tspan class="cls-21" x="0" y="0">L</tspan><tspan x="71.85" y="0">o</tspan><tspan class="cls-13" x="157.98" y="0">r</tspan><tspan x="207.71" y="0">em ipsum</tspan></text>
  <rect class="cls-5" x="3862.04" y="899.28" width="473.42" height="367.14"/>
  <rect class="cls-4" x="4402.13" y="899.28" width="473.42" height="367.14"/>
  <rect class="cls-17" x="4942.21" y="901.22" width="486.95" height="357.48"/>
  <rect class="cls-16" x="4926.45" y="487.7" width="499.79" height="327.2"/>
  <rect class="cls-20" x="3882.5" y="578.52" width="375.41" height="262.8"/>
  <rect class="cls-3" x="4456.58" y="437.47" width="286.95" height="187.44"/>
  <rect class="cls-2" x="5016.97" y="972.25" width="477.58" height="340.55"/>
  <g>
    <path class="cls-8" d="M2283.51,88.62v50.47c-.1,0-.2,0-.3,0-6.97,0-13.28-2.83-17.85-7.39h0c-2.57-2.57-4.59-5.69-5.86-9.17-.21-.58-.4-1.17-.57-1.77-.36-1.27-.62-2.58-.78-3.92-.12-.98-.18-1.98-.18-2.99,0-1.74.18-3.44.51-5.09.04-.21.09-.41.13-.61.14-.61.3-1.21.49-1.81.18-.59.39-1.18.62-1.75.15-.38.31-.76.48-1.13.54-1.2,1.18-2.35,1.89-3.44.39-.59.8-1.17,1.24-1.73.63-.8,1.3-1.57,2.02-2.29,4.57-4.57,10.88-7.39,17.85-7.39.1,0,.2,0,.3,0ZM2313.7,83.37c7.8,7.8,12.63,18.58,12.63,30.49,0,11.91-4.83,22.69-12.63,30.49l10.95,10.95c10.6-10.6,17.16-25.25,17.16-41.44,0-16.18-6.56-30.83-17.16-41.44l-10.95,10.95ZM2252.72,83.37c-7.8,7.8-12.63,18.58-12.63,30.49,0,11.91,4.83,22.69,12.63,30.49l-10.95,10.95c-10.6-10.6-17.16-25.25-17.16-41.44,0-16.18,6.56-30.83,17.16-41.44l10.95,10.95ZM2337.81,59.25c13.97,13.97,22.62,33.28,22.62,54.6,0,21.32-8.64,40.63-22.62,54.6l10.95,10.95c16.77-16.78,27.15-39.95,27.15-65.55,0-25.6-10.38-48.77-27.15-65.55l-10.95,10.95ZM2228.61,59.25c-13.97,13.97-22.62,33.28-22.62,54.6,0,21.32,8.64,40.63,22.62,54.6l-10.95,10.95c-16.77-16.78-27.15-39.95-27.15-65.55,0-25.6,10.38-48.77,27.15-65.55l10.95,10.95ZM2405.06,23.8v180.12l-121.55,23.8v-88.62c7.29-.08,13.83-3.25,18.39-8.26.14-.15.27-.3.4-.45.53-.61,1.03-1.25,1.5-1.91.23-.33.46-.67.68-1.01.22-.34.43-.69.63-1.04.71-1.23,1.32-2.53,1.81-3.88.14-.39.27-.78.4-1.17.18-.59.35-1.2.49-1.81.07-.31.13-.62.19-.93.3-1.54.45-3.14.45-4.77,0-3.12-.57-6.11-1.6-8.87-.08-.2-.16-.41-.24-.61-.2-.5-.42-.99-.65-1.47-.53-1.1-1.14-2.16-1.82-3.17-.11-.17-.23-.33-.35-.5-.47-.66-.97-1.3-1.5-1.91-.13-.15-.27-.3-.4-.45-4.56-5.01-11.1-8.18-18.38-8.27V0l121.55,23.8Z"/>
    <text class="cls-22" transform="translate(2429.73 157.94)"><tspan class="cls-9" x="0" y="0">T</tspan><tspan class="cls-19" x="63.44" y="0">a</tspan><tspan class="cls-14" x="136.41" y="0">gE</tspan><tspan class="cls-18" x="290.46" y="0">a</tspan><tspan class="cls-1" x="364.3" y="0">se</tspan></text>
  </g>
</svg>