<?xml version="1.0" encoding="UTF-8"?>
<svg id="Layer_1" data-name="Layer 1" xmlns="http://www.w3.org/2000/svg" viewBox="0 0 4416.21 1268.93">
  <defs>
    <style>
      .cls-1 {
        fill: #f15822;
      }

      .cls-2 {
        fill: #f7f7f7;
      }
    </style>
  </defs>
  <path class="cls-1" d="M518.24,493.82v281.28c-.56,0-1.11.02-1.67.02-38.84,0-74.01-15.74-99.46-41.2-25.45-25.45-41.2-60.62-41.2-99.46,0-8.5.76-16.82,2.2-24.91.41-2.31.88-4.6,1.4-6.86,6.02-26.09,19.3-49.41,37.6-67.7,25.45-25.45,60.62-41.19,99.46-41.19.56,0,1.11.01,1.67.02h0ZM686.46,464.55c43.49,43.48,70.39,103.55,70.39,169.91s-26.91,126.42-70.39,169.91l61,61c59.1-59.1,95.66-140.73,95.66-230.91s-36.56-171.81-95.66-230.91l-61,61h0ZM346.66,464.55c-43.48,43.48-70.37,103.56-70.37,169.91s26.89,126.43,70.37,169.92l-60.99,60.99c-59.09-59.1-95.65-140.73-95.65-230.91s36.55-171.81,95.64-230.9l61,60.99h0ZM820.83,330.18c77.88,77.87,126.04,185.46,126.05,304.28,0,118.82-48.18,226.39-126.05,304.26l61,61c93.48-93.48,151.31-222.62,151.31-365.27s-57.83-271.79-151.31-365.28l-61,60.99v.02ZM212.29,330.19c-77.87,77.87-126.03,185.45-126.03,304.27s48.16,226.4,126.03,304.26l-60.99,61C57.82,906.25,0,777.11,0,634.46s57.81-271.79,151.29-365.28l61,61h0ZM1195.55,132.6v1003.73l-677.31,132.6v-493.82c38.18-.44,72.7-16.09,97.79-41.18,25.46-25.45,41.21-60.62,41.21-99.46,0-25.49-6.78-49.41-18.64-70.02-1.13-1.96-2.3-3.9-3.52-5.8-.27-.42-.56-.83-.83-1.25-24.85-37.86-67.47-63-116-63.56V0l677.31,132.6h-.01Z"/>
  <g>
    <path class="cls-2" d="M1484.23,426.74v-100.45h473.28v100.45h-176.43v475.82h-120.43v-475.82h-176.43.01Z"/>
    <path class="cls-2" d="M2022.14,910.72c-27.58,0-52.15-4.83-73.72-14.49s-38.6-24.01-51.07-43.05c-12.48-19.04-18.71-42.81-18.71-71.33,0-24.01,4.41-44.18,13.23-60.5,8.81-16.32,20.82-29.45,36.02-39.39,15.19-9.94,32.5-17.45,51.92-22.51s39.82-8.63,61.2-10.69c25.14-2.62,45.4-5.11,60.78-7.46,15.38-2.34,26.54-5.86,33.48-10.55s10.41-11.63,10.41-20.82v-1.69c0-17.82-5.58-31.61-16.74-41.36s-26.97-14.63-47.41-14.63c-21.57,0-38.74,4.74-51.49,14.21-12.76,9.47-21.2,21.34-25.32,35.59l-110.86-9c5.63-26.26,16.69-49,33.2-68.23,16.5-19.23,37.85-34.05,64.01-44.46s56.51-15.62,91.03-15.62c24.01,0,47.03,2.81,69.08,8.44,22.04,5.63,41.64,14.35,58.81,26.17,17.16,11.82,30.72,26.97,40.66,45.44,9.94,18.48,14.91,40.57,14.91,66.27v291.51h-113.68v-59.93h-3.38c-6.94,13.51-16.23,25.37-27.86,35.59-11.63,10.23-25.61,18.2-41.93,23.92-16.32,5.72-35.17,8.58-56.56,8.58h-.01ZM2056.47,827.99c17.63,0,33.2-3.52,46.71-10.55,13.51-7.03,24.1-16.55,31.8-28.56,7.69-12,11.54-25.61,11.54-40.8v-45.87c-3.75,2.44-8.86,4.64-15.34,6.61s-13.74,3.75-21.81,5.35-16.14,3-24.2,4.22c-8.07,1.22-15.38,2.3-21.95,3.24-14.07,2.07-26.36,5.35-36.86,9.85-10.51,4.5-18.67,10.55-24.48,18.15-5.82,7.6-8.72,17.02-8.72,28.28,0,16.32,5.95,28.75,17.87,37.28,11.91,8.54,27.06,12.8,45.44,12.8h0Z"/>
    <path class="cls-2" d="M2507.43,1073.64c-38.83,0-72.08-5.3-99.75-15.9s-49.66-25-65.98-43.19c-16.32-18.2-26.92-38.65-31.8-61.34l110.86-14.91c3.38,8.63,8.72,16.69,16.04,24.2,7.32,7.5,17.02,13.55,29.12,18.15,12.1,4.59,26.87,6.89,44.32,6.89,26.07,0,47.6-6.33,64.58-18.99,16.97-12.66,25.46-33.81,25.46-63.45v-79.07h-5.06c-5.25,12.01-13.13,23.35-23.64,34.05-10.51,10.69-24.01,19.42-40.52,26.17s-36.21,10.13-59.09,10.13c-32.46,0-61.95-7.55-88.49-22.65-26.55-15.1-47.65-38.27-63.31-69.5-15.67-31.23-23.5-70.77-23.5-118.6s7.97-89.85,23.92-122.68c15.94-32.82,37.19-57.4,63.73-73.72s55.67-24.48,87.37-24.48c24.2,0,44.46,4.08,60.78,12.24s29.5,18.29,39.53,30.39c10.03,12.1,17.77,23.97,23.21,35.59h4.5v-72.6h119.02v436.42c0,36.76-9,67.53-27.01,92.29-18.01,24.76-42.91,43.38-74.71,55.85-31.8,12.47-68.33,18.71-109.6,18.71h.02ZM2509.96,806.32c19.32,0,35.69-4.83,49.1-14.49,13.41-9.66,23.73-23.54,30.95-41.64,7.22-18.1,10.83-39.82,10.83-65.14s-3.57-47.32-10.69-65.98c-7.13-18.66-17.45-33.15-30.95-43.47-13.51-10.31-29.92-15.48-49.24-15.48s-36.3,5.3-49.8,15.9c-13.51,10.6-23.73,25.28-30.67,44.04-6.94,18.76-10.41,40.43-10.41,65s3.52,46.48,10.55,64.58c7.03,18.1,17.26,32.08,30.67,41.93s29.97,14.77,49.66,14.77v-.02Z"/>
    <path class="cls-2" d="M2770.7,902.56V326.29h388.31v100.45h-266.47v137.31h246.49v100.45h-246.49v137.6h267.59v100.45h-389.43Z"/>
    <path class="cls-2" d="M3331.12,910.72c-27.58,0-52.15-4.83-73.72-14.49s-38.6-24.01-51.07-43.05c-12.48-19.04-18.71-42.81-18.71-71.33,0-24.01,4.41-44.18,13.22-60.5,8.82-16.32,20.82-29.45,36.02-39.39,15.19-9.94,32.5-17.45,51.91-22.51,19.42-5.06,39.82-8.63,61.2-10.69,25.13-2.62,45.39-5.11,60.78-7.46,15.38-2.34,26.54-5.86,33.48-10.55s10.41-11.63,10.41-20.82v-1.69c0-17.82-5.58-31.61-16.74-41.36s-26.97-14.63-47.41-14.63c-21.57,0-38.74,4.74-51.49,14.21-12.76,9.47-21.2,21.34-25.32,35.59l-110.86-9c5.63-26.26,16.69-49,33.2-68.23,16.5-19.23,37.85-34.05,64.01-44.46,26.17-10.41,56.51-15.62,91.03-15.62,24.01,0,47.04,2.81,69.08,8.44s41.64,14.35,58.81,26.17,30.71,26.97,40.66,45.44c9.94,18.48,14.91,40.57,14.91,66.27v291.51h-113.68v-59.93h-3.38c-6.94,13.51-16.23,25.37-27.86,35.59-11.63,10.23-25.61,18.2-41.93,23.92-16.32,5.72-35.17,8.58-56.56,8.58h.01ZM3365.44,827.99c17.63,0,33.2-3.52,46.71-10.55,13.51-7.03,24.1-16.55,31.8-28.56,7.69-12,11.54-25.61,11.54-40.8v-45.87c-3.75,2.44-8.86,4.64-15.33,6.61s-13.74,3.75-21.81,5.35-16.13,3-24.2,4.22-15.38,2.3-21.95,3.24c-14.07,2.07-26.36,5.35-36.86,9.85-10.51,4.5-18.67,10.55-24.48,18.15-5.82,7.6-8.72,17.02-8.72,28.28,0,16.32,5.95,28.75,17.87,37.28,11.91,8.54,27.06,12.8,45.44,12.8h-.01Z"/>
    <path class="cls-2" d="M3981.29,593.6l-109.74,6.75c-1.88-9.38-5.91-17.87-12.1-25.47-6.19-7.6-14.31-13.69-24.34-18.29-10.04-4.59-22-6.89-35.88-6.89-18.57,0-34.24,3.9-46.99,11.68-12.76,7.79-19.13,18.15-19.13,31.09,0,10.32,4.12,19.04,12.38,26.17,8.25,7.13,22.41,12.85,42.49,17.16l78.22,15.76c42.02,8.63,73.34,22.51,93.98,41.64,20.63,19.13,30.95,44.27,30.95,75.41,0,28.33-8.3,53.18-24.9,74.57-16.6,21.39-39.3,38.04-68.09,49.95-28.8,11.91-61.95,17.87-99.47,17.87-57.22,0-102.75-11.96-136.61-35.88s-53.7-56.51-59.51-97.78l117.9-6.19c3.56,17.45,12.19,30.72,25.89,39.82,13.69,9.1,31.23,13.65,52.62,13.65s37.94-4.08,50.79-12.24,19.37-18.71,19.56-31.66c-.19-10.88-4.78-19.84-13.79-26.87-9-7.03-22.89-12.42-41.64-16.18l-74.85-14.91c-42.21-8.44-73.58-23.07-94.12-43.9-20.54-20.82-30.81-47.36-30.81-79.63,0-27.76,7.55-51.68,22.65-71.75,15.1-20.07,36.39-35.55,63.87-46.43,27.48-10.88,59.7-16.32,96.66-16.32,54.59,0,97.59,11.54,129.01,34.61,31.42,23.07,49.76,54.5,55.01,94.26h0Z"/>
    <path class="cls-2" d="M4217.83,911c-44.46,0-82.68-9.05-114.66-27.15-31.99-18.1-56.61-43.8-73.86-77.1-17.26-33.3-25.89-72.74-25.89-118.32s8.63-83.47,25.89-117.05c17.26-33.58,41.6-59.75,73.02-78.51,31.42-18.76,68.33-28.14,110.72-28.14,28.51,0,55.1,4.55,79.77,13.65,24.66,9.1,46.24,22.75,64.72,40.94,18.47,18.2,32.87,41.04,43.19,68.52,10.31,27.48,15.48,59.61,15.48,96.37v32.92h-364.95v-74.28h252.12c0-17.26-3.75-32.54-11.26-45.87-7.5-13.32-17.87-23.78-31.09-31.37-13.22-7.6-28.56-11.4-46.01-11.4s-34.28,4.18-48.26,12.52c-13.98,8.35-24.9,19.51-32.78,33.48-7.88,13.98-11.92,29.5-12.1,46.57v70.63c0,21.39,3.98,39.86,11.96,55.43,7.97,15.57,19.27,27.58,33.91,36.02s31.98,12.66,52.06,12.66c13.32,0,25.51-1.87,36.58-5.63,11.07-3.75,20.54-9.38,28.42-16.88s13.88-16.69,18.01-27.58l110.86,7.32c-5.63,26.64-17.12,49.85-34.47,69.64-17.35,19.79-39.67,35.17-66.97,46.15-27.29,10.97-58.76,16.46-94.4,16.46h-.01Z"/>
  </g>
</svg>