<?xml version="1.0" encoding="UTF-8"?>
<svg id="Layer_1" data-name="Layer 1" xmlns="http://www.w3.org/2000/svg" viewBox="0 0 919.52 242.81">
  <defs>
    <style>
      .cls-1 {
        fill: #3e7ec0;
      }

      .cls-2 {
        fill: #e7f0f7;
      }
    </style>
  </defs>
  <g>
    <path class="cls-1" d="M193.92,55.1v132.85H61.08l47-47c5.51,5.47,12.7,8.21,19.9,8.21,5.19,0,10.39-1.43,14.96-4.28.4-.25.79-.51,1.17-.77,1.36-.95,2.64-2.02,3.85-3.23,5.51-5.51,8.27-12.75,8.27-19.98s-2.74-14.39-8.2-19.9l45.9-45.9Z"/>
    <g>
      <g>
        <path class="cls-1" d="M147.71,100.69l-39.95,39.95c-.08-.08-.16-.16-.24-.23-5.52-5.52-8.28-12.75-8.28-19.98,0-7.23,2.76-14.46,8.28-19.98,1.21-1.21,2.5-2.28,3.85-3.22.39-.27.78-.53,1.17-.78,4.56-2.85,9.76-4.28,14.96-4.28,7.23,0,14.46,2.76,19.98,8.28.08.08.16.16.23.24Z"/>
        <path class="cls-1" d="M127.5,72.17c-12.35,0-24.7,4.71-34.13,14.14-9.42,9.42-14.14,21.78-14.14,34.13h-17.33c0-16.79,6.4-33.58,19.21-46.38,12.81-12.81,29.59-19.21,46.38-19.21v17.33Z"/>
        <path class="cls-1" d="M127.5,34c-22.12,0-44.24,8.44-61.12,25.32-16.88,16.88-25.32,39-25.32,61.12h-17.33c0-26.55,10.13-53.11,30.39-73.37,20.26-20.26,46.82-30.39,73.37-30.39v17.33Z"/>
      </g>
      <path class="cls-1" d="M148.02,101l-39.95,39.95s-.05-.05-.08-.07c-.08-.08-.16-.16-.23-.24l39.95-39.95c.08.08.16.16.24.23.02.02.05.05.07.08Z"/>
    </g>
  </g>
  <g>
    <path class="cls-2" d="M261.54,187.95v-110.77h-38.96v-22.92h103.13v22.92h-38.96v110.77h-25.21Z"/>
    <path class="cls-2" d="M336.21,190.62c-6.75,0-12.8-1.18-18.14-3.53-5.35-2.35-9.58-5.79-12.7-10.31-3.12-4.52-4.68-10.03-4.68-16.52s1.56-11.94,4.68-16.33c3.12-4.39,7.45-7.7,12.99-9.93,5.54-2.23,11.87-3.34,19-3.34h25.97v-5.35c0-4.45-1.4-8.12-4.2-10.98-2.8-2.86-7.26-4.3-13.37-4.3s-10.44,1.37-13.37,4.11c-2.93,2.74-4.84,6.27-5.73,10.6l-22.15-7.45c1.53-4.84,3.98-9.26,7.35-13.27,3.37-4.01,7.89-7.26,13.56-9.74,5.66-2.48,12.57-3.72,20.72-3.72,12.48,0,22.35,3.12,29.6,9.36,7.26,6.24,10.89,15.28,10.89,27.12v35.33c0,3.82,1.78,5.73,5.35,5.73h7.64v19.86h-16.04c-4.71,0-8.59-1.15-11.65-3.44-3.06-2.29-4.58-5.35-4.58-9.17v-.19h-3.63c-.51,1.53-1.66,3.53-3.44,6.02-1.78,2.48-4.58,4.68-8.4,6.59s-9.04,2.87-15.66,2.87ZM340.41,171.14c6.75,0,12.25-1.88,16.52-5.63,4.26-3.75,6.4-8.75,6.4-14.99v-1.91h-24.26c-4.46,0-7.96.95-10.5,2.86-2.55,1.91-3.82,4.58-3.82,8.02s1.34,6.24,4.01,8.4c2.67,2.17,6.56,3.25,11.65,3.25Z"/>
    <path class="cls-2" d="M401.15,140.97v-3.06c0-9.93,1.97-18.43,5.92-25.5,3.95-7.07,9.2-12.48,15.76-16.23,6.56-3.75,13.72-5.63,21.49-5.63,8.66,0,15.21,1.53,19.67,4.58,4.45,3.06,7.7,6.24,9.74,9.55h3.44v-11.46h23.68v111.53c0,6.49-1.91,11.68-5.73,15.56-3.82,3.88-8.91,5.83-15.28,5.83h-63.41v-21.01h55c3.56,0,5.35-1.91,5.35-5.73v-24.64h-3.44c-1.27,2.04-3.06,4.11-5.35,6.21-2.29,2.1-5.35,3.85-9.17,5.25-3.82,1.4-8.66,2.1-14.52,2.1-7.77,0-14.93-1.88-21.49-5.63-6.56-3.75-11.81-9.17-15.76-16.23-3.95-7.07-5.92-15.56-5.92-25.5ZM451.18,167.32c7.38,0,13.56-2.35,18.53-7.07,4.97-4.71,7.45-11.33,7.45-19.86v-1.91c0-8.66-2.45-15.31-7.35-19.96-4.9-4.65-11.11-6.97-18.62-6.97s-13.56,2.32-18.53,6.97c-4.97,4.65-7.45,11.3-7.45,19.96v1.91c0,8.53,2.48,15.15,7.45,19.86,4.97,4.71,11.14,7.07,18.53,7.07Z"/>
    <path class="cls-2" d="M515.54,187.95V54.26h85.94v22.92h-60.73v31.89h55.38v22.92h-55.38v33.04h61.88v22.92h-87.09Z"/>
    <path class="cls-2" d="M644.64,190.62c-6.75,0-12.8-1.18-18.14-3.53-5.35-2.35-9.58-5.79-12.7-10.31-3.12-4.52-4.68-10.03-4.68-16.52s1.56-11.94,4.68-16.33c3.12-4.39,7.45-7.7,12.99-9.93,5.54-2.23,11.87-3.34,19-3.34h25.97v-5.35c0-4.45-1.4-8.12-4.2-10.98-2.8-2.86-7.26-4.3-13.37-4.3s-10.44,1.37-13.37,4.11c-2.93,2.74-4.84,6.27-5.73,10.6l-22.15-7.45c1.53-4.84,3.98-9.26,7.35-13.27,3.37-4.01,7.89-7.26,13.56-9.74,5.66-2.48,12.57-3.72,20.72-3.72,12.48,0,22.35,3.12,29.6,9.36,7.26,6.24,10.89,15.28,10.89,27.12v35.33c0,3.82,1.78,5.73,5.35,5.73h7.64v19.86h-16.04c-4.71,0-8.59-1.15-11.65-3.44-3.06-2.29-4.58-5.35-4.58-9.17v-.19h-3.63c-.51,1.53-1.66,3.53-3.44,6.02-1.78,2.48-4.58,4.68-8.4,6.59s-9.04,2.87-15.66,2.87ZM648.84,171.14c6.75,0,12.25-1.88,16.52-5.63,4.26-3.75,6.4-8.75,6.4-14.99v-1.91h-24.26c-4.46,0-7.96.95-10.5,2.86-2.55,1.91-3.82,4.58-3.82,8.02s1.34,6.24,4.01,8.4c2.67,2.17,6.56,3.25,11.65,3.25Z"/>
    <path class="cls-2" d="M754.65,190.62c-12.35,0-22.47-2.67-30.37-8.02-7.9-5.35-12.67-12.99-14.32-22.92l22.15-5.73c.89,4.46,2.39,7.96,4.49,10.5,2.1,2.55,4.71,4.36,7.83,5.44,3.12,1.08,6.52,1.62,10.22,1.62,5.6,0,9.74-.98,12.41-2.96,2.67-1.97,4.01-4.42,4.01-7.35s-1.27-5.19-3.82-6.78c-2.55-1.59-6.62-2.89-12.22-3.92l-5.35-.95c-6.62-1.27-12.67-3.02-18.14-5.25-5.48-2.23-9.87-5.32-13.18-9.26-3.31-3.95-4.97-9.04-4.97-15.28,0-9.42,3.44-16.65,10.31-21.68,6.87-5.03,15.91-7.54,27.12-7.54,10.57,0,19.35,2.36,26.36,7.07,7,4.71,11.58,10.89,13.75,18.52l-22.35,6.88c-1.02-4.84-3.09-8.28-6.21-10.31-3.12-2.03-6.97-3.06-11.55-3.06s-8.09.8-10.5,2.39c-2.42,1.59-3.63,3.79-3.63,6.59,0,3.06,1.27,5.32,3.82,6.78,2.55,1.47,5.98,2.58,10.31,3.34l5.35.95c7.13,1.27,13.59,2.96,19.38,5.06,5.79,2.1,10.38,5.09,13.75,8.98,3.37,3.89,5.06,9.14,5.06,15.76,0,9.93-3.6,17.6-10.79,23.01-7.19,5.41-16.84,8.12-28.93,8.12Z"/>
    <path class="cls-2" d="M850.13,190.62c-9.42,0-17.73-2.01-24.92-6.02-7.19-4.01-12.8-9.67-16.81-17-4.01-7.32-6.02-15.95-6.02-25.88v-2.29c0-9.93,1.97-18.56,5.92-25.88,3.95-7.32,9.48-12.99,16.62-17,7.13-4.01,15.4-6.02,24.83-6.02s17.38,2.07,24.25,6.21c6.88,4.14,12.22,9.87,16.04,17.19,3.82,7.32,5.73,15.82,5.73,25.5v8.21h-68.94c.25,6.49,2.67,11.78,7.26,15.85,4.58,4.08,10.18,6.11,16.81,6.11s11.71-1.46,14.9-4.39c3.18-2.93,5.6-6.17,7.26-9.74l19.67,10.31c-1.78,3.31-4.36,6.91-7.73,10.79-3.38,3.89-7.86,7.19-13.46,9.93-5.6,2.74-12.73,4.11-21.39,4.11ZM827.03,129.7h44.31c-.51-5.47-2.71-9.86-6.59-13.18-3.89-3.31-8.95-4.97-15.18-4.97s-11.65,1.66-15.47,4.97c-3.82,3.31-6.18,7.71-7.07,13.18Z"/>
  </g>
</svg>