<?xml version="1.0" encoding="UTF-8"?>
<svg id="Layer_1" data-name="Layer 1" xmlns="http://www.w3.org/2000/svg" viewBox="0 0 250.33 74.09">
  <defs>
    <style>
      .cls-1 {
        fill: #3e7ec0;
      }

      .cls-2 {
        fill: #f6f7f7;
      }
    </style>
  </defs>
  <g>
    <path class="cls-2" d="M87.94,52.16v-28.36h-9.98v-5.87h26.41v5.87h-9.98v28.36h-6.45Z"/>
    <path class="cls-2" d="M107.06,52.84c-1.73,0-3.28-.3-4.65-.9-1.37-.6-2.45-1.48-3.25-2.64-.8-1.16-1.2-2.57-1.2-4.23s.4-3.06,1.2-4.18c.8-1.12,1.91-1.97,3.33-2.54,1.42-.57,3.04-.86,4.87-.86h6.65v-1.37c0-1.14-.36-2.08-1.08-2.81-.72-.73-1.86-1.1-3.42-1.1s-2.67.35-3.42,1.05c-.75.7-1.24,1.61-1.47,2.71l-5.67-1.91c.39-1.24,1.02-2.37,1.88-3.4.86-1.03,2.02-1.86,3.47-2.49,1.45-.64,3.22-.95,5.31-.95,3.19,0,5.72.8,7.58,2.4,1.86,1.6,2.79,3.91,2.79,6.94v9.05c0,.98.46,1.47,1.37,1.47h1.96v5.09h-4.11c-1.21,0-2.2-.29-2.98-.88-.78-.59-1.17-1.37-1.17-2.35v-.05h-.93c-.13.39-.42.9-.88,1.54-.46.64-1.17,1.2-2.15,1.69-.98.49-2.32.73-4.01.73ZM108.14,47.85c1.73,0,3.14-.48,4.23-1.44,1.09-.96,1.64-2.24,1.64-3.84v-.49h-6.21c-1.14,0-2.04.24-2.69.73-.65.49-.98,1.17-.98,2.05s.34,1.6,1.03,2.15c.68.55,1.68.83,2.98.83Z"/>
    <path class="cls-2" d="M123.69,40.13v-.78c0-2.54.51-4.72,1.52-6.53,1.01-1.81,2.35-3.19,4.03-4.16,1.68-.96,3.51-1.44,5.5-1.44,2.22,0,3.9.39,5.04,1.17,1.14.78,1.97,1.6,2.49,2.44h.88v-2.93h6.06v28.56c0,1.66-.49,2.99-1.47,3.99-.98.99-2.28,1.49-3.91,1.49h-16.23v-5.38h14.08c.91,0,1.37-.49,1.37-1.47v-6.31h-.88c-.33.52-.78,1.05-1.37,1.59-.59.54-1.37.99-2.35,1.34-.98.36-2.22.54-3.72.54-1.99,0-3.82-.48-5.5-1.44-1.68-.96-3.02-2.35-4.03-4.16-1.01-1.81-1.52-3.99-1.52-6.53ZM136.5,46.87c1.89,0,3.47-.6,4.74-1.81,1.27-1.21,1.91-2.9,1.91-5.09v-.49c0-2.22-.63-3.92-1.88-5.11-1.26-1.19-2.84-1.78-4.77-1.78s-3.47.6-4.74,1.78c-1.27,1.19-1.91,2.89-1.91,5.11v.49c0,2.18.64,3.88,1.91,5.09,1.27,1.21,2.85,1.81,4.74,1.81Z"/>
    <path class="cls-2" d="M152.98,52.16V17.93h22v5.87h-15.55v8.17h14.18v5.87h-14.18v8.46h15.84v5.87h-22.3Z"/>
    <path class="cls-2" d="M186.03,52.84c-1.73,0-3.28-.3-4.65-.9-1.37-.6-2.45-1.48-3.25-2.64-.8-1.16-1.2-2.57-1.2-4.23s.4-3.06,1.2-4.18c.8-1.12,1.91-1.97,3.33-2.54,1.42-.57,3.04-.86,4.87-.86h6.65v-1.37c0-1.14-.36-2.08-1.08-2.81-.72-.73-1.86-1.1-3.42-1.1s-2.67.35-3.42,1.05c-.75.7-1.24,1.61-1.47,2.71l-5.67-1.91c.39-1.24,1.02-2.37,1.88-3.4.86-1.03,2.02-1.86,3.47-2.49,1.45-.64,3.22-.95,5.31-.95,3.19,0,5.72.8,7.58,2.4,1.86,1.6,2.79,3.91,2.79,6.94v9.05c0,.98.46,1.47,1.37,1.47h1.96v5.09h-4.11c-1.21,0-2.2-.29-2.98-.88-.78-.59-1.17-1.37-1.17-2.35v-.05h-.93c-.13.39-.42.9-.88,1.54-.46.64-1.17,1.2-2.15,1.69s-2.32.73-4.01.73ZM187.11,47.85c1.73,0,3.14-.48,4.23-1.44,1.09-.96,1.64-2.24,1.64-3.84v-.49h-6.21c-1.14,0-2.04.24-2.69.73-.65.49-.98,1.17-.98,2.05s.34,1.6,1.03,2.15c.68.55,1.68.83,2.98.83Z"/>
    <path class="cls-2" d="M214.2,52.84c-3.16,0-5.75-.68-7.77-2.05-2.02-1.37-3.24-3.33-3.67-5.87l5.67-1.47c.23,1.14.61,2.04,1.15,2.69.54.65,1.21,1.12,2,1.39.8.28,1.67.42,2.62.42,1.43,0,2.49-.25,3.18-.76.68-.5,1.03-1.13,1.03-1.88s-.33-1.33-.98-1.74c-.65-.41-1.7-.74-3.13-1l-1.37-.24c-1.7-.33-3.24-.77-4.65-1.34-1.4-.57-2.53-1.36-3.37-2.37-.85-1.01-1.27-2.31-1.27-3.91,0-2.41.88-4.26,2.64-5.55,1.76-1.29,4.07-1.93,6.94-1.93,2.71,0,4.95.6,6.75,1.81,1.79,1.21,2.97,2.79,3.52,4.74l-5.72,1.76c-.26-1.24-.79-2.12-1.59-2.64-.8-.52-1.78-.78-2.96-.78s-2.07.2-2.69.61c-.62.41-.93.97-.93,1.69,0,.78.33,1.36.98,1.74.65.38,1.53.66,2.64.86l1.37.24c1.83.33,3.48.76,4.96,1.3,1.48.54,2.66,1.3,3.52,2.3.86.99,1.3,2.34,1.3,4.03,0,2.54-.92,4.51-2.76,5.89-1.84,1.39-4.31,2.08-7.41,2.08Z"/>
    <path class="cls-2" d="M238.65,52.84c-2.41,0-4.54-.51-6.38-1.54-1.84-1.03-3.28-2.48-4.3-4.35-1.03-1.87-1.54-4.08-1.54-6.63v-.59c0-2.54.51-4.75,1.52-6.63,1.01-1.87,2.43-3.33,4.25-4.35,1.83-1.03,3.94-1.54,6.36-1.54s4.45.53,6.21,1.59c1.76,1.06,3.13,2.53,4.11,4.4.98,1.87,1.47,4.05,1.47,6.53v2.1h-17.65c.06,1.66.68,3.02,1.86,4.06,1.17,1.04,2.61,1.56,4.3,1.56s3-.37,3.81-1.12c.81-.75,1.43-1.58,1.86-2.49l5.04,2.64c-.46.85-1.12,1.77-1.98,2.76-.86.99-2.01,1.84-3.45,2.54-1.43.7-3.26,1.05-5.48,1.05ZM232.73,37.24h11.34c-.13-1.4-.69-2.53-1.69-3.37-.99-.85-2.29-1.27-3.89-1.27s-2.98.42-3.96,1.27c-.98.85-1.58,1.97-1.81,3.37Z"/>
  </g>
  <path class="cls-1" d="M30.26,28.83v16.42s-.06,0-.1,0c-2.27,0-4.32-.92-5.81-2.41h0c-.84-.84-1.49-1.85-1.91-2.98-.07-.19-.13-.38-.19-.58-.12-.41-.2-.84-.25-1.28-.04-.32-.06-.64-.06-.97,0-.57.06-1.12.17-1.65.01-.07.03-.13.04-.2.05-.2.1-.39.16-.59.06-.19.13-.38.2-.57.05-.12.1-.25.16-.37.18-.39.38-.76.62-1.12.13-.19.26-.38.4-.56.2-.26.42-.51.66-.74,1.49-1.49,3.54-2.41,5.81-2.41.03,0,.06,0,.1,0ZM40.08,27.12c2.54,2.54,4.11,6.05,4.11,9.92,0,3.87-1.57,7.38-4.11,9.92l3.56,3.56c3.45-3.45,5.58-8.22,5.58-13.48,0-5.26-2.13-10.03-5.58-13.48l-3.56,3.56ZM20.24,27.12c-2.54,2.54-4.11,6.05-4.11,9.92,0,3.87,1.57,7.38,4.11,9.92l-3.56,3.56c-3.45-3.45-5.58-8.22-5.58-13.48,0-5.26,2.13-10.03,5.58-13.48l3.56,3.56ZM47.93,19.28c4.55,4.55,7.36,10.83,7.36,17.77,0,6.94-2.81,13.22-7.36,17.76l3.56,3.56c5.46-5.46,8.83-13,8.83-21.33,0-8.33-3.38-15.87-8.83-21.33l-3.56,3.56ZM12.4,19.28c-4.55,4.55-7.36,10.83-7.36,17.77,0,6.94,2.81,13.22,7.36,17.76l-3.56,3.56C3.38,52.91,0,45.37,0,37.04c0-8.33,3.38-15.87,8.83-21.33l3.56,3.56ZM69.8,7.74v58.6l-39.55,7.74v-28.83c2.37-.03,4.5-1.06,5.98-2.69.04-.05.09-.1.13-.15.17-.2.33-.41.49-.62.08-.11.15-.22.22-.33.07-.11.14-.22.21-.34.23-.4.43-.82.59-1.26.05-.13.09-.25.13-.38.06-.19.11-.39.16-.59.02-.1.04-.2.06-.3.1-.5.15-1.02.15-1.55,0-1.02-.18-1.99-.52-2.89-.03-.07-.05-.13-.08-.2-.07-.16-.14-.32-.21-.48-.17-.36-.37-.7-.59-1.03-.04-.05-.07-.11-.11-.16-.15-.21-.32-.42-.49-.62-.04-.05-.09-.1-.13-.15-1.48-1.63-3.61-2.66-5.98-2.69V0l39.55,7.74Z"/>
</svg>