<?xml version="1.0" encoding="UTF-8"?>
<svg id="Layer_1" data-name="Layer 1" xmlns="http://www.w3.org/2000/svg" viewBox="0 0 1195.56 1268.93">
  <defs>
    <style>
      .cls-1 {
        fill: #f15822;
      }
    </style>
  </defs>
  <path class="cls-1" d="M518.24,493.82v281.28c-.56,0-1.11.02-1.67.02-38.84,0-74.01-15.74-99.46-41.2-25.45-25.45-41.2-60.62-41.2-99.46,0-8.5.76-16.82,2.2-24.91.41-2.31.88-4.6,1.4-6.86,6.02-26.09,19.3-49.41,37.6-67.7,25.45-25.45,60.62-41.19,99.46-41.19.56,0,1.11.01,1.67.02h0ZM686.46,464.55c43.49,43.48,70.39,103.55,70.39,169.91s-26.91,126.42-70.39,169.91l61,61c59.1-59.1,95.66-140.73,95.66-230.91s-36.56-171.81-95.66-230.91l-61,61h0ZM346.66,464.55c-43.48,43.48-70.37,103.56-70.37,169.91s26.89,126.43,70.37,169.92l-60.99,60.99c-59.09-59.1-95.65-140.73-95.65-230.91s36.55-171.81,95.64-230.9l61,60.99h0ZM820.83,330.18c77.88,77.87,126.04,185.46,126.05,304.28,0,118.82-48.18,226.39-126.05,304.26l61,61c93.48-93.48,151.31-222.62,151.31-365.27s-57.83-271.79-151.31-365.28l-61,60.99v.02h0ZM212.29,330.19c-77.87,77.87-126.03,185.45-126.03,304.27s48.16,226.4,126.03,304.26l-60.99,61C57.82,906.25,0,777.11,0,634.46s57.81-271.79,151.29-365.28l61,61h0ZM1195.55,132.6v1003.73l-677.31,132.6v-493.82c38.18-.44,72.7-16.09,97.79-41.18,25.46-25.45,41.21-60.62,41.21-99.46,0-25.49-6.78-49.41-18.64-70.02-1.13-1.96-2.3-3.9-3.52-5.8-.27-.42-.56-.83-.83-1.25-24.85-37.86-67.47-63-116-63.56V0l677.31,132.6h-.01Z"/>
</svg>